<svg width="579" height="418" viewBox="0 0 579 418" fill="none" xmlns="http://www.w3.org/2000/svg">
<g filter="url(#filter0_i_157_226)">
<g clip-path="url(#clip0_157_226)">
<path opacity="0.1" d="M336.409 73.7176C299.29 72.4251 263.909 60.4193 230.176 47.2865C196.442 34.1537 163.007 19.6003 126.757 12.6414C103.451 8.16057 76.7963 7.53037 58.021 20.049C39.9494 32.0922 34.1121 52.8835 30.9723 72.1741C28.6107 86.6901 27.2407 101.965 33.6963 115.557C38.1903 124.988 46.1652 132.919 51.6826 141.956C70.8737 173.396 57.3067 212.17 36.5057 242.895C26.7502 257.315 15.4328 271.035 7.90567 286.368C0.378504 301.701 -3.10787 319.267 3.48106 334.904C10.0114 350.392 25.5668 362.046 42.423 370.233C76.6577 386.848 116.996 391.601 156.333 394.325C243.407 400.29 330.95 397.705 418.253 395.12C450.564 394.159 483.018 393.192 514.801 388.178C532.451 385.395 550.677 380.984 563.493 370.334C579.757 356.812 583.792 333.921 572.891 316.965C554.606 288.531 504.054 281.465 491.27 250.948C484.239 234.152 491.462 215.438 501.687 199.859C523.612 166.443 560.374 137.122 562.309 98.9203C563.642 72.6815 545.97 46.4106 518.644 33.9935C490.007 20.9676 450.292 22.6125 429.166 44.1408C407.41 66.3207 369.178 74.8551 336.409 73.7176Z" fill="#00B0FF"/>
<path d="M129.14 387.222C129.14 387.222 99.8202 365.015 94.2815 336.768C92.0353 324.904 86.0106 314.09 77.1108 305.947C72.8533 302.116 68.2549 298.684 63.3732 295.693" stroke="#535461" stroke-width="2" stroke-miterlimit="10"/>
<path d="M59.7855 277.898C62.355 281.38 63.5171 296.136 63.5171 296.136C63.5171 296.136 49.7795 290.715 47.2047 287.238C45.9683 285.567 45.4453 283.472 45.7507 281.414C46.0561 279.357 47.1649 277.505 48.8332 276.266C50.5016 275.027 52.5927 274.503 54.6467 274.809C56.7006 275.115 58.5491 276.226 59.7855 277.898Z" fill="#00B0FF"/>
<path d="M84.4247 289.476C84.6912 293.797 77.6705 306.818 77.6705 306.818C77.6705 306.818 69.0718 294.78 68.8 290.459C68.6966 288.399 69.4075 286.381 70.7786 284.843C72.1498 283.305 74.0707 282.37 76.1253 282.24C78.1798 282.111 80.2025 282.798 81.755 284.153C83.3075 285.507 84.2647 287.42 84.4194 289.476H84.4247Z" fill="#00B0FF"/>
<path d="M108.307 322.759C106.366 326.626 93.7377 334.317 93.7377 334.317C93.7377 334.317 92.389 319.576 94.3294 315.71C95.2847 313.891 96.9142 312.521 98.8675 311.895C100.821 311.268 102.942 311.434 104.774 312.358C106.606 313.282 108.002 314.89 108.663 316.835C109.324 318.78 109.196 320.908 108.307 322.759Z" fill="#00B0FF"/>
<path d="M120.722 352.005C119.459 356.144 108.312 365.859 108.312 365.859C108.312 365.859 104.49 351.562 105.753 347.417C106.361 345.429 107.732 343.763 109.565 342.787C111.398 341.811 113.543 341.605 115.528 342.213C117.513 342.821 119.175 344.195 120.149 346.031C121.124 347.867 121.33 350.016 120.722 352.005Z" fill="#00B0FF"/>
<path d="M64.9618 317.285C69.2265 317.862 82.7082 311.763 82.7082 311.763C82.7082 311.763 71.3322 302.321 67.0462 301.744C64.9891 301.467 62.9064 302.02 61.2563 303.282C59.6063 304.543 58.524 306.41 58.2476 308.47C57.9712 310.531 58.5233 312.618 59.7825 314.271C61.0416 315.924 62.9047 317.008 64.9618 317.285Z" fill="#00B0FF"/>
<path d="M79.9149 351.311C84.1795 350.579 95.1984 340.726 95.1984 340.726C95.1984 340.726 81.5194 335.129 77.2601 335.86C76.2403 336.028 75.2637 336.396 74.3867 336.943C73.5097 337.491 72.7497 338.207 72.1504 339.051C71.5512 339.894 71.1246 340.848 70.8953 341.858C70.666 342.867 70.6386 343.912 70.8146 344.932C70.9906 345.952 71.3665 346.928 71.9207 347.801C72.4749 348.675 73.1963 349.431 74.0434 350.024C74.8904 350.617 75.8463 351.036 76.8559 351.257C77.8655 351.478 78.9088 351.496 79.9255 351.311H79.9149Z" fill="#00B0FF"/>
<path d="M98.9727 382.388C103.296 382.388 115.824 374.543 115.824 374.543C115.824 374.543 103.291 366.708 98.9674 366.708C96.8918 366.708 94.9014 367.534 93.4338 369.004C91.9662 370.475 91.1417 372.469 91.1417 374.548C91.1417 376.627 91.9662 378.622 93.4338 380.092C94.9014 381.562 96.8918 382.388 98.9674 382.388H98.9727Z" fill="#00B0FF"/>
<path d="M413.967 195.154C413.967 195.154 432.039 163.083 459.28 153.844C470.718 150.038 480.617 142.619 487.491 132.7C490.714 127.958 493.496 122.929 495.801 117.677" stroke="#535461" stroke-width="2" stroke-miterlimit="10"/>
<path d="M512.903 111.802C509.8 114.814 495.359 117.933 495.359 117.933C495.359 117.933 498.904 103.567 502.006 100.549C503.504 99.1445 505.492 98.3852 507.543 98.4346C509.594 98.484 511.544 99.3382 512.972 100.813C514.4 102.289 515.194 104.267 515.181 106.322C515.168 108.377 514.35 110.345 512.903 111.802Z" fill="#00B0FF"/>
<path d="M504.736 137.774C500.471 138.618 486.68 133.373 486.68 133.373C486.68 133.373 497.449 123.226 501.687 122.398C502.704 122.172 503.757 122.151 504.782 122.338C505.808 122.525 506.786 122.915 507.659 123.486C508.532 124.057 509.282 124.796 509.866 125.661C510.449 126.527 510.855 127.5 511.058 128.524C511.261 129.548 511.258 130.603 511.049 131.626C510.839 132.649 510.428 133.62 509.839 134.481C509.25 135.343 508.496 136.078 507.619 136.644C506.743 137.209 505.763 137.593 504.736 137.774Z" fill="#00B0FF"/>
<path d="M475.011 165.909C470.928 164.493 461.647 152.979 461.647 152.979C461.647 152.979 476.04 149.678 480.134 151.094C481.118 151.42 482.027 151.94 482.808 152.622C483.59 153.303 484.229 154.134 484.688 155.065C485.146 155.996 485.416 157.009 485.48 158.045C485.545 159.081 485.404 160.12 485.065 161.101C484.725 162.082 484.195 162.986 483.504 163.76C482.814 164.534 481.976 165.163 481.041 165.61C480.106 166.058 479.091 166.314 478.056 166.365C477.021 166.417 475.986 166.261 475.011 165.909Z" fill="#00B0FF"/>
<path d="M447.696 182.123C443.431 181.418 432.364 171.618 432.364 171.618C432.364 171.618 446.006 165.925 450.265 166.63C452.315 166.967 454.147 168.107 455.359 169.798C456.57 171.49 457.061 173.594 456.724 175.647C456.386 177.701 455.249 179.537 453.561 180.75C451.873 181.964 449.772 182.455 447.722 182.118L447.696 182.123Z" fill="#00B0FF"/>
<path d="M474.638 122.142C474.632 126.473 482.474 139.04 482.474 139.04C482.474 139.04 490.305 126.489 490.305 122.163C490.333 121.117 490.15 120.075 489.769 119.1C489.389 118.126 488.817 117.237 488.088 116.487C487.358 115.738 486.487 115.142 485.524 114.735C484.561 114.328 483.527 114.118 482.482 114.118C481.437 114.118 480.403 114.328 479.44 114.735C478.478 115.142 477.606 115.738 476.877 116.487C476.148 117.237 475.576 118.126 475.195 119.1C474.814 120.075 474.632 121.117 474.659 122.163L474.638 122.142Z" fill="#00B0FF"/>
<path d="M442.957 141.507C444.247 145.641 455.463 155.281 455.463 155.281C455.463 155.281 459.194 140.957 457.894 136.823C457.219 134.908 455.829 133.33 454.016 132.421C452.204 131.512 450.109 131.343 448.175 131.95C446.24 132.557 444.616 133.893 443.645 135.675C442.674 137.458 442.431 139.548 442.967 141.507H442.957Z" fill="#00B0FF"/>
<path d="M414.772 164.563C415.348 168.835 424.773 180.248 424.773 180.248C424.773 180.248 430.856 166.763 430.28 162.475C430.166 161.435 429.845 160.43 429.337 159.517C428.829 158.603 428.144 157.801 427.322 157.157C426.501 156.513 425.558 156.04 424.551 155.766C423.544 155.493 422.493 155.423 421.459 155.562C420.425 155.702 419.429 156.047 418.53 156.577C417.631 157.108 416.846 157.813 416.223 158.652C415.6 159.49 415.151 160.445 414.902 161.46C414.653 162.476 414.609 163.53 414.772 164.563Z" fill="#00B0FF"/>
<path opacity="0.25" d="M512.903 111.802C509.8 114.814 495.359 117.933 495.359 117.933C495.359 117.933 498.904 103.567 502.006 100.549C503.504 99.1445 505.492 98.3852 507.543 98.4346C509.594 98.484 511.544 99.3382 512.972 100.813C514.4 102.289 515.194 104.267 515.181 106.322C515.168 108.377 514.35 110.345 512.903 111.802Z" fill="black"/>
<path opacity="0.25" d="M504.736 137.774C500.471 138.618 486.68 133.373 486.68 133.373C486.68 133.373 497.449 123.226 501.687 122.398C502.704 122.172 503.757 122.151 504.782 122.338C505.808 122.525 506.786 122.915 507.659 123.486C508.532 124.057 509.282 124.796 509.866 125.661C510.449 126.527 510.855 127.5 511.058 128.524C511.261 129.548 511.258 130.603 511.049 131.626C510.839 132.649 510.428 133.62 509.839 134.481C509.25 135.343 508.496 136.078 507.619 136.644C506.743 137.209 505.763 137.593 504.736 137.774Z" fill="black"/>
<path opacity="0.25" d="M475.011 165.909C470.928 164.493 461.647 152.979 461.647 152.979C461.647 152.979 476.04 149.678 480.134 151.094C481.118 151.42 482.027 151.94 482.808 152.622C483.59 153.303 484.229 154.134 484.688 155.065C485.146 155.996 485.416 157.009 485.48 158.045C485.545 159.081 485.404 160.12 485.065 161.101C484.725 162.082 484.195 162.986 483.504 163.76C482.814 164.534 481.976 165.163 481.041 165.61C480.106 166.058 479.091 166.314 478.056 166.365C477.021 166.417 475.986 166.261 475.011 165.909Z" fill="black"/>
<path opacity="0.25" d="M447.696 182.123C443.431 181.418 432.364 171.618 432.364 171.618C432.364 171.618 446.006 165.925 450.265 166.63C452.315 166.967 454.147 168.107 455.359 169.798C456.57 171.49 457.061 173.594 456.724 175.647C456.386 177.701 455.249 179.537 453.561 180.75C451.873 181.964 449.772 182.455 447.722 182.118L447.696 182.123Z" fill="black"/>
<path opacity="0.25" d="M474.638 122.142C474.632 126.473 482.474 139.04 482.474 139.04C482.474 139.04 490.305 126.489 490.305 122.163C490.333 121.117 490.15 120.075 489.769 119.1C489.389 118.126 488.817 117.237 488.088 116.487C487.358 115.738 486.487 115.142 485.524 114.735C484.561 114.328 483.527 114.118 482.482 114.118C481.437 114.118 480.403 114.328 479.44 114.735C478.478 115.142 477.606 115.738 476.877 116.487C476.148 117.237 475.576 118.126 475.195 119.1C474.814 120.075 474.632 121.117 474.659 122.163L474.638 122.142Z" fill="black"/>
<path opacity="0.25" d="M442.957 141.507C444.247 145.641 455.463 155.281 455.463 155.281C455.463 155.281 459.194 140.957 457.894 136.823C457.219 134.908 455.829 133.33 454.016 132.421C452.204 131.512 450.109 131.343 448.175 131.95C446.24 132.557 444.616 133.893 443.645 135.675C442.674 137.458 442.431 139.548 442.967 141.507H442.957Z" fill="black"/>
<path opacity="0.25" d="M414.772 164.563C415.348 168.835 424.773 180.248 424.773 180.248C424.773 180.248 430.856 166.763 430.28 162.475C430.166 161.435 429.845 160.43 429.337 159.517C428.829 158.603 428.144 157.801 427.322 157.157C426.501 156.513 425.558 156.04 424.551 155.766C423.544 155.493 422.493 155.423 421.459 155.562C420.425 155.702 419.429 156.047 418.53 156.577C417.631 157.108 416.846 157.813 416.223 158.652C415.6 159.49 415.151 160.445 414.902 161.46C414.653 162.476 414.609 163.53 414.772 164.563Z" fill="black"/>
<path d="M415.007 194.519C415.007 194.519 418.557 157.86 439.699 138.367C448.617 130.243 454.666 119.442 456.939 107.583C457.974 101.945 458.49 96.2247 458.48 90.4927" stroke="#535461" stroke-width="2" stroke-miterlimit="10"/>
<path d="M471.733 78.1237C470.133 82.1399 458.171 90.8559 458.171 90.8559C458.171 90.8559 455.601 76.2811 457.217 72.2649C457.994 70.3364 459.505 68.7964 461.416 67.9836C463.327 67.1708 465.482 67.1519 467.407 67.9309C469.332 68.71 470.869 70.2232 471.68 72.1377C472.491 74.0522 472.51 76.2112 471.733 78.1397V78.1237Z" fill="#00B0FF"/>
<path d="M474.776 105.212C471.242 107.7 456.492 108.518 456.492 108.518C456.492 108.518 462.238 94.8774 465.773 92.3887C466.611 91.7602 467.566 91.3066 468.583 91.0547C469.599 90.8029 470.655 90.7579 471.689 90.9225C472.723 91.087 473.714 91.4577 474.602 92.0127C475.491 92.5677 476.259 93.2956 476.862 94.1534C477.464 95.0111 477.889 95.9813 478.11 97.0064C478.332 98.0316 478.346 99.0908 478.151 100.121C477.957 101.152 477.558 102.133 476.978 103.007C476.399 103.88 475.65 104.628 474.776 105.206V105.212Z" fill="#00B0FF"/>
<path d="M458.965 143.013C454.658 143.376 441.512 136.604 441.512 136.604C441.512 136.604 453.346 127.739 457.654 127.376C459.722 127.201 461.775 127.857 463.361 129.2C464.946 130.542 465.935 132.46 466.108 134.532C466.282 136.604 465.627 138.661 464.288 140.249C462.948 141.838 461.034 142.828 458.965 143.002V143.013Z" fill="#00B0FF"/>
<path d="M440.568 168.91C436.384 169.978 422.289 165.561 422.289 165.561C422.289 165.561 432.455 154.821 436.64 153.732C438.649 153.21 440.782 153.509 442.571 154.563C444.36 155.617 445.658 157.34 446.179 159.353C446.7 161.366 446.402 163.503 445.349 165.296C444.297 167.088 442.577 168.388 440.568 168.91Z" fill="#00B0FF"/>
<path d="M440.942 103.139C442.69 107.097 454.919 115.423 454.919 115.423C454.919 115.423 456.998 100.768 455.249 96.8107C454.378 94.9592 452.819 93.5225 450.904 92.8076C448.99 92.0926 446.872 92.1562 445.004 92.9847C443.135 93.8132 441.664 95.341 440.905 97.2415C440.146 99.1419 440.159 101.264 440.942 103.155V103.139Z" fill="#00B0FF"/>
<path d="M419.81 133.699C422.662 136.951 436.81 141.213 436.81 141.213C436.81 141.213 434.422 126.606 431.57 123.354C430.897 122.564 430.073 121.916 429.148 121.447C428.223 120.978 427.214 120.699 426.179 120.624C425.145 120.549 424.106 120.682 423.124 121.013C422.141 121.344 421.233 121.867 420.454 122.553C419.675 123.238 419.04 124.072 418.585 125.005C418.13 125.939 417.865 126.954 417.805 127.991C417.745 129.028 417.892 130.067 418.236 131.046C418.58 132.026 419.115 132.928 419.81 133.699Z" fill="#00B0FF"/>
<path d="M403.343 166.234C405.603 169.92 418.829 176.515 418.829 176.515C418.829 176.515 418.941 161.716 416.697 158.026C415.58 156.322 413.844 155.121 411.858 154.678C409.871 154.234 407.791 154.583 406.057 155.651C404.324 156.719 403.074 158.421 402.572 160.397C402.07 162.373 402.356 164.467 403.37 166.234H403.343Z" fill="#00B0FF"/>
<path d="M387.82 50.9555C388.704 47.7031 389.771 44.4346 390.517 41.1393C389.621 44.4346 388.55 47.7137 387.82 50.9555Z" fill="url(#paint0_linear_157_226)"/>
<path d="M383.853 82.284C383.779 82.1559 383.726 82.0277 383.667 81.9102C383.667 81.8568 383.614 81.8141 383.592 81.7607C383.476 81.8156 383.357 81.8637 383.235 81.9049C383.001 81.9956 382.761 82.0811 382.515 82.1505C382.27 82.2199 382.169 82.2573 381.982 82.3001C381.828 82.3534 381.669 82.3945 381.508 82.4229L381.551 82.519C381.748 82.4763 381.94 82.4389 382.137 82.3855L382.19 83.0478C382.414 83.0478 382.622 83.0157 382.825 83.0157C382.92 83.0104 383.017 83.0104 383.112 83.0157C383.528 83.0157 383.891 83.0157 384.179 83.0157C384.067 82.7754 383.949 82.5244 383.853 82.284ZM492.07 254.858C489.564 251.477 484.564 215.192 484.564 215.192C484.564 215.192 474.729 189.392 477.41 179.095C480.091 168.798 470.085 142.452 470.085 142.452C470.085 142.452 463.475 139.574 463.118 135.301C463.118 135.301 436.128 126.756 434.864 120.347C433.841 115.092 417.102 111.321 411.089 110.13C409.255 102.718 407.41 95.8013 406.051 92.0255C405.683 90.8505 405.337 89.8358 405.017 89.0347C402.719 83.1599 395.619 82.6258 390.469 83.0958C390.246 82.0945 389.831 81.146 389.248 80.3026C389.163 80.0127 388.994 79.7544 388.763 79.5603C388.653 79.4659 388.535 79.3802 388.411 79.3039C388.318 79.1308 388.195 78.9754 388.049 78.8446C387.903 78.7126 387.742 78.5979 387.569 78.5028C387.445 78.4357 387.317 78.3768 387.185 78.3266C386.876 78.2087 386.557 78.1211 386.231 78.0649C385.851 77.9867 385.467 77.9367 385.08 77.9154C386.02 77.503 386.859 76.8886 387.537 76.1155C387.998 75.5728 388.341 74.9399 388.545 74.257C388.713 73.6891 388.789 73.0974 388.768 72.5052C388.63 72.7493 388.47 72.9799 388.289 73.1942C388.513 70.8283 387.265 68.4249 386.551 66.0697C385.685 63.0035 385.525 59.7806 386.082 56.6434C386.796 51.9115 388.566 47.1263 389.765 42.309C389.768 42.2823 389.768 42.2555 389.765 42.2288C390.394 39.8365 390.784 37.3872 390.928 34.9174C391.135 29.9346 389.861 24.9624 387.814 20.4228C385.996 16.4013 383.315 12.4438 379.21 10.8096C376.161 9.57586 372.744 9.77346 369.46 9.57052C362.093 9.11122 355.067 6.51564 348.062 4.15506C341.057 1.79447 333.85 -0.35249 326.477 0.0587434C319.105 0.469977 311.519 4.03222 308.155 10.5692C307.089 12.6094 306.476 14.8792 305.202 16.7965C302.814 20.4121 298.538 22.2226 294.972 24.7167C291.406 27.2108 288.266 30.7517 286.976 34.9762C286.271 37.2522 286.172 39.673 286.688 41.9992C286.804 42.5245 286.954 43.0419 287.136 43.548C287.642 44.9591 288.431 46.2515 289.455 47.3452C290.227 48.1536 291.114 48.8429 292.088 49.3907C293.311 50.0699 294.62 50.5801 295.98 50.9075C295.932 51.0677 295.884 51.2386 295.83 51.4042C295.745 51.6765 295.67 51.9382 295.591 52.232C295.415 52.8889 295.249 53.5564 295.111 54.2294C295.105 54.2773 295.105 54.3257 295.111 54.3736C294.456 57.4114 294.127 60.5105 294.13 63.6183C294.129 65.0881 294.204 66.557 294.354 68.0191C296.486 89.6916 314.344 106.787 336.409 107.898C337.166 107.935 337.928 107.957 338.701 107.957C339.053 107.957 339.399 107.957 339.767 107.957C340.114 108.416 340.455 108.886 340.78 109.345C341.105 109.805 341.404 110.275 341.686 110.734L340.913 109.933L340.14 109.222C339.931 109.511 339.697 109.78 339.442 110.029C338.938 109.851 338.424 109.705 337.901 109.591C335.689 109.1 332.32 108.918 327.885 110.259C323.807 111.482 318.822 113.997 312.99 118.777L284.572 135.867L269.197 145.235L263.659 158.8C263.659 158.8 259.495 174.918 254.863 193.386C254.682 193.44 254.506 193.493 254.33 193.557C253.955 193.515 253.577 193.493 253.2 193.493C250.512 193.487 247.926 194.524 245.986 196.388C244.045 198.251 242.901 200.795 242.794 203.486C233.582 214.701 233.06 225.917 235.224 231.065C235.42 231.547 235.667 232.007 235.96 232.438C237.378 234.488 240.027 239.776 242.714 245.41C242.644 245.875 242.602 246.265 242.581 246.558C242.576 246.654 242.576 246.751 242.581 246.847C242.581 246.847 244.18 271.045 238.849 277.983C237.681 279.494 237.857 281.481 238.849 283.682C242.421 291.596 256.542 302.166 256.542 302.166C256.542 302.166 273.478 302.075 282.914 301.044C282.887 301.995 282.866 302.94 282.844 303.864C282.631 313.2 282.631 321.024 282.631 321.024L282.279 330.813C282.279 330.813 279.081 351.444 277.482 357.132C276.474 360.7 277.636 393.732 278.649 418.016H445.515C447.477 403.649 444.71 360 444.71 360C444.71 360 442.082 348.715 441.986 338.878C441.981 338.867 441.978 338.855 441.978 338.843C441.978 338.831 441.981 338.819 441.986 338.808C441.986 337.948 441.986 337.11 442.018 336.287L443.229 336.245L445.404 336.17H445.601C445.601 336.17 445.654 335.967 445.777 335.636C446.064 334.811 446.457 334.027 446.944 333.302C447.872 331.929 449.322 330.583 451.502 330.493C452.707 330.445 454.573 329.467 456.678 328.025C456.692 328.028 456.707 328.028 456.721 328.025C462.388 324.185 469.877 317.098 471.695 315.934C474.195 314.332 486.169 303.65 486.169 303.65C486.169 303.65 487.954 301.386 489.857 298.657L489.927 298.561C492.294 295.143 494.81 291.057 494.191 289.77C493.125 287.463 494.906 281.946 494.906 281.946C500.466 271.75 494.575 258.238 492.07 254.858ZM388.987 90.5888C389.038 90.7483 389.07 90.9132 389.083 91.0802C388.95 90.9039 388.816 90.717 388.683 90.5461L388.555 90.3752L388.465 90.247L388.667 89.9693C388.667 89.9693 388.667 89.9693 388.667 90.0067C388.808 90.1798 388.916 90.377 388.987 90.5888ZM387.196 85.857C386.615 85.9745 386.156 86.0813 385.858 86.1614C385.479 85.4885 385.117 84.8155 384.792 84.1319C385.646 84.6286 386.451 85.2063 387.196 85.857ZM386.194 86.7008C386.192 86.6902 386.192 86.6794 386.194 86.6687L386.236 86.7008C386.455 86.845 386.668 86.9838 386.865 87.128C387.041 87.2562 387.201 87.3791 387.361 87.5072C387.255 87.6942 387.137 87.8864 387.02 88.0413C386.833 87.7476 386.657 87.4645 386.487 87.1708C386.38 87.0533 386.284 86.8931 386.194 86.7008ZM382.995 80.1104C384.025 80.0086 385.062 80.0086 386.092 80.1104C386.236 80.1104 386.364 80.1371 386.492 80.1584C386.781 80.2032 387.065 80.2766 387.34 80.3774C387.97 81.2604 388.358 82.2935 388.465 83.3735L388.177 83.4163L387.894 83.4697C387.361 83.5605 386.828 83.6513 386.412 83.7367L385.879 83.8489C385.17 84.0037 384.76 84.1212 384.744 84.1266C384.674 83.9824 384.605 83.8489 384.53 83.71C384.413 83.4803 384.291 83.2454 384.184 83.0157C384.077 82.7861 383.939 82.5244 383.827 82.284C383.752 82.1559 383.699 82.0277 383.64 81.9102C383.64 81.8568 383.587 81.8141 383.566 81.7607C383.535 81.704 383.508 81.6451 383.486 81.5844C383.16 80.9222 382.862 80.2599 382.574 79.6084C382.542 79.5443 382.515 79.4748 382.489 79.4108L382.894 79.384V79.5229L382.995 80.1104ZM255.806 411.415C255.764 403.463 255.188 394.859 253.589 386.784C252.906 383.35 252.203 379.915 251.488 376.54C251.307 375.696 251.131 374.863 250.955 374.03L249.313 374.249H249.164C244.686 353.094 240.006 334.456 240.006 334.456C240.006 334.456 230.709 298.892 231.786 296.056C231.924 295.687 231.748 294.694 231.354 293.236C229.104 285.15 219.711 262.869 216.427 255.253C216.427 255.221 216.401 255.184 216.39 255.157C215.857 253.88 215.473 253.021 215.356 252.77L216.129 241.405L216.171 240.721L216.273 239.268L216.23 239.231L216.273 238.558C216.273 238.558 208.159 231.893 194.416 227.081C193.883 226.889 193.318 226.702 192.758 226.52C193.446 221.922 194.358 216.731 195.546 211.673C195.658 211.166 195.781 210.674 195.909 210.178C196.021 209.681 196.149 209.2 196.277 208.714C196.479 207.924 196.698 207.144 196.922 206.375C197.663 206.14 198.393 205.878 199.113 205.601L199.39 205.494C208.256 202.038 215.571 195.48 219.981 187.036C224.392 178.591 225.599 168.831 223.379 159.564C222.113 154.308 219.775 149.371 216.513 145.064C216.267 144.733 216.006 144.402 215.745 144.076C215.484 143.75 215.169 143.387 214.876 143.056C216.417 139.547 218.234 136.209 218.384 132.796C218.41 132.364 218.41 131.931 218.384 131.499V131.445C218.187 129.25 217.216 127.028 214.956 124.694C211.656 121.271 206.96 119.535 202.263 118.702C197.567 117.869 192.78 117.848 188.057 117.287C180.226 116.347 172.597 113.928 164.766 113.185C155.12 112.29 145.409 113.948 136.603 117.992C130.777 120.662 124.875 125.33 124.523 131.734C124.236 137.026 127.914 142.1 126.986 147.328C126.064 152.466 120.84 156.509 121.298 161.705C121.474 163.735 122.514 165.551 123.814 167.169C124.262 167.703 124.737 168.237 125.227 168.771C127.125 170.785 129.215 172.718 130.275 175.255C130.318 175.362 130.361 175.468 130.398 175.575C131.299 178.08 130.894 181.247 128.665 182.684C128.678 182.693 128.687 182.706 128.692 182.721C128.724 182.764 128.756 182.796 128.783 182.839C128.786 182.83 128.786 182.82 128.783 182.812C129.573 183.75 130.638 184.416 131.827 184.713L132.28 184.852C131.912 185.253 131.565 185.669 131.214 186.107L130.984 186.412C130.397 187.203 129.863 188.033 129.385 188.895C129.113 189.376 128.852 189.856 128.634 190.337C127.903 191.802 127.374 193.36 127.061 194.967C126.491 198.503 127.295 202.188 126.432 205.649C125.366 209.921 121.991 213.2 120.088 217.169C116.484 224.646 118.526 233.42 119.251 241.677C120.237 252.892 118.638 264.156 117.044 275.297C116.198 281.221 115.353 287.151 114.507 293.086C112.374 307.983 110.242 322.88 108.11 337.777C107.331 343.236 106.409 348.993 102.779 353.207H102.816C102.816 353.207 102.816 353.239 102.779 353.249C103.869 353.727 105.028 354.026 106.212 354.136C110.951 354.611 115.973 352.315 120.237 349.805C123.615 347.849 126.813 345.599 129.796 343.081C129.359 344.683 128.889 346.429 128.388 348.309C128.39 348.327 128.39 348.345 128.388 348.363C122.37 371.328 112.689 413.428 112.689 413.428C112.689 413.428 111.809 415.26 110.669 417.989H260.999C259.239 415.853 257.603 413.807 256.323 412.157L255.806 411.415ZM144.498 199.069C144.535 199.005 144.562 198.946 144.599 198.887C144.599 199.058 144.599 199.224 144.599 199.384C144.599 199.544 144.599 199.688 144.599 199.838C144.599 199.988 144.599 199.972 144.599 200.046C144.599 200.046 144.599 200.121 144.599 200.046C144.599 200.265 144.551 200.484 144.514 200.703C144.514 200.703 144.514 200.73 144.514 200.751L145.047 200.949L145.666 201.205C149.319 202.651 153.019 203.959 156.764 205.131C157.148 205.253 157.537 205.371 157.927 205.483L158.007 206.145C158.102 206.824 158.193 207.513 158.278 208.202C158.278 208.202 158.278 208.234 158.278 208.255C158.518 210.162 158.753 212.063 158.961 213.921C158.961 213.921 149.173 210.183 149.296 215.86C149.29 215.961 149.29 216.063 149.296 216.165C149.285 216.3 149.285 216.435 149.296 216.57C149.387 220.992 150.767 223.615 151.044 224.961C151.028 225.016 150.999 225.068 150.959 225.11C150.723 225.626 150.641 226.199 150.725 226.76C150.715 227.716 150.79 228.67 150.948 229.612C150.661 229.789 150.378 229.965 150.096 230.146C149.882 230.28 149.68 230.429 149.472 230.579C148.164 226.034 146.453 221.616 144.36 217.377C142.894 214.354 141.246 211.203 141.262 207.886C141.262 207.673 141.262 207.454 141.289 207.235C141.348 206.274 141.531 205.324 141.833 204.41C141.955 204.062 142.089 203.721 142.238 203.384C142.586 202.585 142.976 201.804 143.405 201.045C143.683 200.543 143.976 200.046 144.258 199.544C144.349 199.395 144.434 199.24 144.519 199.09L144.498 199.069ZM383.853 82.284C383.779 82.1559 383.726 82.0277 383.667 81.9102C383.667 81.8568 383.614 81.8141 383.592 81.7607C383.476 81.8156 383.357 81.8637 383.235 81.9049C383.001 81.9956 382.761 82.0811 382.515 82.1505C382.27 82.2199 382.169 82.2573 381.982 82.3001L381.508 82.4229L381.551 82.519C381.748 82.4763 381.94 82.4389 382.137 82.3855L382.19 83.0478C382.414 83.0478 382.622 83.0157 382.825 83.0157H383.112C383.528 83.0157 383.891 83.0157 384.179 83.0157C384.067 82.7754 383.949 82.5244 383.853 82.284Z" fill="url(#paint1_linear_157_226)"/>
<path d="M267.374 160.728L264.176 162.143C264.176 162.143 243.327 243.29 243.327 249.848C243.327 256.407 287.536 292.9 287.536 292.9L294.434 246.254C294.434 246.254 284.529 139.285 267.374 160.728Z" fill="#E8F5FF"/>
<path d="M364.348 134.917L345.876 125.261C344.842 120.842 343.006 116.651 340.46 112.897C337.758 108.988 334.165 105.148 329.687 103.145C318.369 98.0605 377.558 71.373 377.558 71.373C378.49 74.5789 379.588 77.7342 380.847 80.826C383.896 88.3671 388.955 98.1192 395.475 100.896C406.558 105.623 364.348 134.917 364.348 134.917Z" fill="#FFC1C7"/>
<path opacity="0.1" d="M380.847 80.826C378.318 89.7369 373.059 97.6268 365.812 103.381C358.565 109.136 349.697 112.464 340.46 112.897C337.758 108.987 334.165 105.148 329.687 103.145C318.369 98.0604 377.558 71.373 377.558 71.373C378.49 74.5789 379.588 77.7342 380.847 80.826Z" fill="black"/>
<path d="M382.51 67.3515C382.512 76.0908 379.927 84.6345 375.082 91.902C370.237 99.1695 363.35 104.834 355.291 108.18C347.232 111.526 338.364 112.402 329.809 110.698C321.253 108.994 313.394 104.786 307.225 98.6065C301.056 92.4273 296.855 84.554 295.153 75.9826C293.451 67.4112 294.325 58.5266 297.663 50.4526C301.002 42.3786 306.655 35.4778 313.909 30.623C321.162 25.7682 329.69 23.1775 338.413 23.1786C344.211 23.1517 349.957 24.2759 355.319 26.4862C360.681 28.6965 365.552 31.9492 369.652 36.0563C373.752 40.1634 377 45.0436 379.206 50.4151C381.413 55.7866 382.536 61.5428 382.51 67.3515Z" fill="#FFC1C7"/>
<path d="M388.875 129.245L376.849 157.358L366.24 176.019H332.283L322.378 150.506L326.392 124.048H352.327L369.071 123.103L374.727 121.212L378.373 123.285L388.875 129.245Z" fill="#575A89"/>
<path opacity="0.1" d="M384.733 91.7691C384.733 91.7691 392.234 93.3713 385.517 98.8883C378.8 104.405 355.627 121.949 355.627 121.949C355.627 121.949 363.767 129.213 362.082 137.72L389.051 122.66L393.849 98.5625C393.849 98.5625 394.387 91.3205 384.733 91.7691Z" fill="black"/>
<path opacity="0.1" d="M360.931 121.949L343.776 124.785C343.776 124.785 347.316 137.897 345.546 141.619C345.493 141.735 345.448 141.854 345.413 141.977L338.413 160.931L343.659 175.816L361.816 151.008L355.627 141.619C355.627 141.619 362.168 132.935 366.059 129.923C369.951 126.911 360.931 121.949 360.931 121.949Z" fill="black"/>
<path d="M360.931 121.218L343.776 124.048C343.776 124.048 347.316 137.16 345.546 140.882C345.493 140.998 345.448 141.117 345.413 141.24L338.413 160.194L343.659 175.079L361.816 150.255L355.627 140.866C355.627 140.866 362.168 132.182 366.059 129.17C369.951 126.158 360.931 121.218 360.931 121.218Z" fill="#DCE6F2"/>
<path d="M385.453 90.3538C385.453 90.3538 392.953 91.9561 386.231 97.473C379.509 102.99 355.627 121.949 355.627 121.949C355.627 121.949 364.47 127.797 362.791 136.3L389.76 121.244L394.558 97.1472C394.558 97.1472 395.091 89.9052 385.453 90.3538Z" fill="#575A89"/>
<path opacity="0.1" d="M341.638 114.569C341.638 114.569 343.275 117.634 350.498 123.162C350.498 123.162 338.472 129.571 343.072 138.58L324.676 133.774L321.845 124.913L341.638 114.569Z" fill="black"/>
<path d="M340.929 113.864C340.929 113.864 342.566 116.929 349.789 122.457C349.789 122.457 337.763 128.834 342.363 137.87L323.972 133.063L321.141 124.209L340.929 113.864Z" fill="#575A89"/>
<path opacity="0.1" d="M388.875 129.245L376.849 157.358L366.262 176.019H332.283L322.378 150.506L326.387 124.048H333.6C333.482 130.222 335.732 137.475 335.588 140.172C335.343 144.605 342.188 168.52 342.188 168.52C342.188 168.52 356.512 145.31 362.168 143.243C365.723 141.945 373.256 131.146 378.368 123.285L388.875 129.245Z" fill="black"/>
<path d="M436.25 277.187L435.03 278.725C435.03 278.725 443.874 323.197 441.427 333.297C441.011 335.117 440.773 336.974 440.718 338.84V338.92C440.286 349.196 443.383 362.532 443.383 362.532C443.383 362.532 445.857 401.839 444.449 418.005H278.862C277.892 394.1 276.847 363.13 277.796 359.696C279.395 354.029 282.594 333.473 282.594 333.473L282.946 323.731C282.946 323.731 282.946 314.316 283.234 303.827C283.356 299.111 283.537 294.16 283.799 289.77C284.135 284.248 284.604 279.596 285.249 277.31C285.646 275.578 285.875 273.81 285.931 272.034C285.931 271.868 285.931 271.697 285.963 271.526C285.963 270.992 286.016 270.415 286.038 269.823C286.038 269.657 286.038 269.491 286.038 269.288C286.139 265.849 286.102 261.769 285.99 257.539C285.99 257.309 285.99 257.074 285.99 256.839C285.899 253.667 285.766 250.43 285.616 247.354C285.153 237.741 284.55 229.612 284.55 229.612L264.213 162.106L269.693 148.583L284.902 139.248L313.022 122.238C326.739 110.942 335.769 112.299 339.213 113.538C339.547 113.652 339.875 113.786 340.194 113.938C340.3 113.992 340.386 114.034 340.466 114.083C340.575 114.135 340.68 114.195 340.78 114.264C339.837 114.719 339.018 115.395 338.392 116.235C337.687 117.191 337.184 118.281 336.915 119.439C336.735 120.157 336.609 120.887 336.537 121.624C336.468 122.398 336.441 123.199 336.441 124.006C336.479 125.774 336.63 127.538 336.894 129.287C336.894 129.32 336.894 129.362 336.894 129.405C337.07 130.655 337.288 131.878 337.502 133.026C337.499 133.045 337.499 133.065 337.502 133.085C337.747 134.425 337.992 135.664 338.157 136.732C338.189 136.925 338.216 137.101 338.243 137.266C338.36 137.972 338.415 138.687 338.408 139.403C338.468 141.131 338.7 142.848 339.101 144.53C339.24 145.235 339.399 145.988 339.575 146.773C339.815 147.841 340.076 149.005 340.359 150.191C340.514 150.843 340.679 151.515 340.849 152.183C340.913 152.45 340.983 152.717 341.047 152.989L341.153 153.411C342.289 157.935 343.52 162.437 344.277 165.161C344.725 166.763 345.008 167.751 345.008 167.751C345.008 167.751 353.036 154.747 359.443 147.344C359.539 147.238 359.625 147.136 359.715 147.04C360.35 146.308 360.973 145.641 361.571 145.053C362.877 143.75 364.049 142.821 364.993 142.479C365.194 142.405 365.388 142.314 365.574 142.207C368.197 140.717 372.429 135.306 376.39 129.64C376.779 129.106 377.158 128.524 377.542 127.974C378.421 126.703 379.274 125.426 380.079 124.203C380.698 123.269 381.289 122.361 381.849 121.495C384.514 117.34 386.391 114.243 386.391 114.243L390.091 114.077L390.736 114.045H391.167L407.965 113.265C407.965 113.265 408.69 113.388 409.884 113.629C409.948 113.629 410.012 113.629 410.081 113.671C416.041 114.857 432.599 118.611 433.612 123.819C434.848 130.195 461.556 138.703 461.556 138.703C461.908 142.976 468.449 145.79 468.449 145.79C468.449 145.79 478.353 172.013 475.704 182.289C473.087 192.436 482.517 217.537 482.767 218.242L480.96 220.528L436.25 277.187Z" fill="#E8F5FF"/>
<path opacity="0.1" d="M384.728 89.9052C384.728 89.9052 401.077 85.2588 404.793 94.824C408.509 104.389 416.819 143.018 416.819 143.018C416.819 143.018 395.24 147.093 389.584 143.018C386.266 140.6 382.16 139.524 378.085 140.006L365.883 148.332L362.279 147.264C362.279 147.264 381.801 118.19 386.044 108.309C390.288 98.429 391.722 94.0122 384.728 89.9052Z" fill="black"/>
<path d="M384.019 87.7689C384.019 87.7689 400.379 83.1225 404.111 92.6877C407.842 102.253 416.137 140.882 416.137 140.882C416.137 140.882 394.563 144.957 388.902 140.882C385.586 138.464 381.481 137.388 377.408 137.87L365.195 146.196L361.592 145.128C361.592 145.128 381.113 116.053 385.357 106.173C389.6 96.2927 391.013 91.8866 384.019 87.7689Z" fill="#E8F5FF"/>
<path opacity="0.1" d="M274.272 241.875C274.272 241.875 286.475 244.887 288.778 251.798C291.081 258.708 279.758 258.885 279.758 258.885C279.758 258.885 272.86 246.66 274.272 241.875Z" fill="black"/>
<path opacity="0.1" d="M319.723 292.9C319.723 292.9 289.839 354.205 296.737 360.054C303.635 365.902 319.723 292.9 319.723 292.9Z" fill="black"/>
<path opacity="0.1" d="M360.931 247.723C360.931 247.723 384.808 307.271 380.031 316.468C375.255 325.665 390.288 316.468 390.288 316.468L360.931 247.723Z" fill="black"/>
<path d="M394.179 306.545C394.179 306.545 313.534 310.444 337.059 335.604C360.584 360.764 408.86 336.672 408.86 336.672L394.179 306.545Z" fill="#FFC1C7"/>
<path opacity="0.1" d="M382.51 67.3515C382.517 73.1462 381.382 78.8853 379.168 84.2388C378.427 84.3242 377.686 84.3776 376.971 84.4097C375.905 82.0651 376.476 79.3574 376.497 76.7778C376.518 74.1983 375.569 71.1647 373.09 70.4705C368.149 69.0765 364.737 78.332 359.865 76.6603C356.133 75.3892 357.109 69.7174 354.96 66.4436C353.26 63.8533 349.853 63.1217 347.204 61.4981C341.569 58.032 341.74 52.4883 339.122 47.2438C336.382 41.7482 330.593 43.3718 325.566 46.6136C321.749 49.081 318.455 52.3869 314.371 54.3522C310.837 56.0613 306.865 56.6808 302.947 56.7716C300.535 56.8652 298.122 56.6098 295.782 56.0132C298.534 45.649 304.955 36.6413 313.847 30.6699C322.738 24.6984 333.495 22.1709 344.11 23.5587C354.724 24.9465 364.473 30.1549 371.538 38.2125C378.602 46.2701 382.5 56.6269 382.505 67.3515H382.51Z" fill="black"/>
<path d="M325.582 45.1983C321.76 47.6657 318.471 50.9662 314.387 52.9423C310.853 54.646 306.881 55.2655 302.963 55.3563C298.165 55.4631 293 54.6193 289.721 51.1478C286.709 47.9434 285.99 43.014 287.264 38.8108C288.538 34.6077 291.592 31.1202 295.18 28.5941C298.768 26.0679 302.931 24.3215 305.309 20.7059C306.567 18.7939 307.174 16.5401 308.219 14.5053C311.562 7.99504 319.078 4.47018 326.344 4.03225C333.61 3.59431 340.812 5.76263 347.732 8.11253C354.651 10.4624 361.624 13.0473 368.927 13.5333C372.179 13.7363 375.559 13.5333 378.576 14.767C382.633 16.4173 385.293 20.3641 387.105 24.3803C389.136 28.9092 390.4 33.8547 390.186 38.8002C389.739 49.3587 382.777 59.7196 385.836 69.8349C386.647 72.532 388.166 75.2984 387.356 77.9955C386.172 81.9316 381.103 82.8288 377.003 83.0158C375.937 80.6712 376.508 77.9581 376.529 75.3839C376.55 72.8097 375.601 69.7708 373.128 69.0765C368.181 67.6933 364.769 76.9327 359.907 75.2664C356.202 73.99 357.162 68.3235 355.008 65.0497C353.308 62.4541 349.896 61.7277 347.252 60.1042C341.617 56.6381 341.788 51.0944 339.17 45.8499C336.409 40.3276 330.614 41.9512 325.582 45.1983Z" fill="#99607E"/>
<path d="M247.384 248.428L243.316 249.848C243.316 249.848 244.915 273.945 239.585 280.856C234.254 287.767 257.091 304.948 257.091 304.948C257.091 304.948 288.394 304.772 289.279 302.278C290.164 299.784 287.68 257.63 287.68 257.63C287.68 257.63 270.877 251.071 272.289 240.62C272.289 240.62 267.161 265.246 259.559 264.183C251.957 263.12 243.327 256.759 247.384 248.428Z" fill="#E8F5FF"/>
<path opacity="0.1" d="M260.951 271.638C266.877 271.638 271.682 267.236 271.682 261.806C271.682 256.376 266.877 251.974 260.951 251.974C255.024 251.974 250.22 256.376 250.22 261.806C250.22 267.236 255.024 271.638 260.951 271.638Z" fill="black"/>
<path d="M272.684 249.138C272.684 249.138 270.551 183.939 251.989 198.465C233.427 212.992 233.246 230.365 236.78 235.498C240.315 240.63 251.648 266.324 251.648 266.324C253.421 267.354 255.412 267.948 257.458 268.057C259.504 268.167 261.547 267.79 263.419 266.956C265.292 266.122 266.94 264.856 268.23 263.261C269.52 261.666 270.414 259.787 270.839 257.779L272.684 249.138Z" fill="#FFC1C7"/>
<path opacity="0.1" d="M388.475 83.9877C388.389 83.7013 388.222 83.4456 387.996 83.2507C387.079 82.4122 385.106 82.1185 382.132 82.3749L382.254 83.7848C386.22 83.443 387.004 84.2334 387.105 84.3669V84.5005L387.228 84.6767C387.722 85.3425 388.073 86.1045 388.256 86.9138C388.44 87.7231 388.453 88.5619 388.294 89.3765C387.425 93.7292 382.089 97.1953 382.036 97.2327L381.908 97.3074L381.828 97.4303C379.525 100.854 366.502 110.515 363.095 113.014L362.797 112.673C361.272 113.997 347.87 125.752 347.145 130.254C346.676 133.079 343.499 134.174 342.347 134.479C341.132 133.555 337.187 130.409 335.135 126.884C333.21 123.568 340.956 117.095 341.638 114.569L340.572 113.474C340.46 113.88 330.513 123.194 333.28 127.952C335.497 131.771 339.549 135.039 340.967 136.118C340.514 140.241 337.694 164.451 333.36 170.187C327.975 177.316 323.45 213.249 323.951 225.794C324.393 236.94 321.488 257.993 311.786 267.035C310.106 268.669 308.08 269.902 305.858 270.641C303.636 271.381 301.276 271.609 298.954 271.307H298.837H298.72C298.581 271.307 284.508 272.749 272.684 262.762C263.008 254.607 257.528 241.298 256.387 223.193H256.153L256.057 217.922C258.68 217.511 261.043 216.099 262.648 213.98C264.254 211.861 264.977 209.201 264.666 206.56C264.355 203.918 263.034 201.5 260.981 199.813C258.927 198.127 256.301 197.303 253.655 197.516C251.008 197.728 248.547 198.96 246.788 200.953C245.029 202.945 244.109 205.543 244.222 208.201C244.335 210.859 245.471 213.369 247.393 215.205C249.315 217.04 251.872 218.058 254.527 218.044H254.644L254.74 223.284L254.271 223.316C255.444 242.008 261.201 255.835 271.33 264.375C279.028 270.766 288.862 273.99 298.842 273.395C299.55 273.473 300.262 273.512 300.975 273.513C305.549 273.537 309.951 271.763 313.236 268.573C323.455 259.04 326.563 237.212 326.078 225.687C325.545 212.394 330.294 177.754 335.06 171.447C339.73 165.257 342.561 141.138 343.056 136.465C344.746 135.99 348.569 134.489 349.219 130.591C349.688 127.771 358.639 119.081 364.145 114.269L363.98 114.077C366.944 111.909 376.161 105.073 380.73 100.683C382.148 99.3209 383.555 97.959 385.026 96.6612C386.796 95.091 389.046 92.5969 389.637 89.6489C389.839 88.6757 389.84 87.6715 389.64 86.698C389.44 85.7245 389.044 84.8022 388.475 83.9877Z" fill="black"/>
<path d="M340.785 135.782C340.562 135.627 335.252 131.819 332.592 127.237C329.831 122.478 339.778 113.169 339.885 112.763L340.951 113.858C340.274 116.379 332.528 122.857 334.452 126.169C336.878 130.35 341.985 134.009 342.038 134.046L340.785 135.782Z" fill="#353146"/>
<path d="M362.402 114.05L361.57 112.902C361.741 112.779 378.485 100.645 381.124 96.7199L381.209 96.6024L381.332 96.5223C381.385 96.485 386.721 93.0242 387.59 88.6662C387.751 87.8525 387.739 87.0142 387.555 86.2055C387.371 85.3968 387.02 84.6358 386.524 83.9717L386.402 83.7901V83.6619C386.295 83.5231 385.511 82.738 381.545 83.0798L381.423 81.6645C384.403 81.4082 386.37 81.7019 387.287 82.5404C387.515 82.7372 387.683 82.9945 387.772 83.2828C388.348 84.0948 388.752 85.0165 388.96 85.991C389.167 86.9656 389.172 87.9724 388.976 88.9492C388.385 91.9026 386.14 94.3967 384.365 95.9616C382.899 97.2594 381.487 98.6319 380.074 99.9831C374.716 105.126 362.988 113.629 362.402 114.05Z" fill="#E8F5FF"/>
<path d="M255.369 216.062L253.957 216.088L254.114 224.69L255.526 224.665L255.369 216.062Z" fill="#E8F5FF"/>
<path d="M253.839 217.366C259.536 217.366 264.154 212.739 264.154 207.032C264.154 201.324 259.536 196.698 253.839 196.698C248.142 196.698 243.524 201.324 243.524 207.032C243.524 212.739 248.142 217.366 253.839 217.366Z" fill="#00B0FF"/>
<path d="M253.839 215.614C258.571 215.614 262.406 211.772 262.406 207.032C262.406 202.292 258.571 198.449 253.839 198.449C249.108 198.449 245.273 202.292 245.273 207.032C245.273 211.772 249.108 215.614 253.839 215.614Z" fill="#E8F5FF"/>
<path d="M300.303 272.824C299.591 272.825 298.879 272.788 298.171 272.712C288.191 273.301 278.359 270.077 270.658 263.691C260.529 255.146 254.783 241.335 253.599 222.627L255.732 222.493C256.873 240.598 262.353 253.913 272.033 262.062C283.857 272.023 297.925 270.608 298.064 270.608H298.181H298.299C300.621 270.908 302.981 270.679 305.204 269.94C307.426 269.2 309.454 267.968 311.135 266.335C320.832 257.293 323.737 236.24 323.295 225.094C322.762 212.538 327.288 176.606 332.677 169.482C337.395 163.238 340.322 135.098 340.354 134.815L340.434 134.014L341.223 133.875C341.271 133.875 345.876 132.999 346.452 129.549C347.198 125.052 360.579 113.297 362.098 111.968L363.49 113.57C357.961 118.376 349.011 127.071 348.563 129.896C347.913 133.806 344.091 135.301 342.406 135.771C341.873 140.45 339.064 164.563 334.41 170.753C329.644 177.06 324.894 211.7 325.427 224.993C325.886 236.518 322.81 258.351 312.591 267.878C309.3 271.077 304.888 272.853 300.303 272.824Z" fill="#353146"/>
<g opacity="0.1">
<path opacity="0.1" d="M387.052 54.7261C387.926 51.4896 388.982 48.2318 389.717 44.9526C388.838 48.2478 387.777 51.4896 387.052 54.7261Z" fill="black"/>
<path opacity="0.1" d="M378.133 80.1584C377.067 77.8139 377.638 75.1008 377.659 72.5266C377.68 69.9524 376.731 66.9402 374.258 66.2192C369.311 64.836 365.899 74.0807 361.037 72.4091C357.306 71.1327 358.292 65.4662 356.138 62.1924C354.438 59.5968 351.031 58.8704 348.387 57.2469C342.747 53.7808 342.918 48.2371 340.306 42.9926C337.56 37.4917 331.776 39.1152 326.744 42.3624C322.922 44.8298 319.633 48.1357 315.549 50.1064C312.015 51.8101 308.043 52.4296 304.125 52.5204C299.354 52.6325 294.162 51.7833 290.883 48.3119C288.356 45.6416 287.445 41.7268 287.967 38.0578C287.877 38.3088 287.797 38.5598 287.717 38.8108C286.437 43.0139 287.184 47.9541 290.174 51.1478C293.453 54.6193 298.645 55.4631 303.416 55.3563C307.34 55.2655 311.306 54.646 314.845 52.9423C318.94 50.9662 322.229 47.6657 326.04 45.1983C331.073 41.9511 336.862 40.3276 339.602 45.8285C342.214 51.073 342.049 56.6167 347.684 60.0828C350.349 61.685 353.734 62.4327 355.44 65.0283C357.572 68.3128 356.629 73.9686 360.339 75.245C365.195 76.9113 368.607 67.6719 373.554 69.0551C376.028 69.7494 376.982 72.7936 376.955 75.3625C376.929 77.9314 376.374 80.6498 377.43 82.9944C381.529 82.8074 386.599 81.9262 387.788 77.9741C387.951 77.4069 388.027 76.8179 388.011 76.2277C386.279 79.2238 381.822 79.9929 378.133 80.1584Z" fill="black"/>
</g>
<path opacity="0.1" d="M474.478 211.753L480.667 218.312C480.667 218.312 485.619 254.452 488.093 257.833C490.566 261.213 496.409 274.661 490.924 284.76C490.924 284.76 489.154 290.256 490.215 292.558C491.276 294.86 482.261 306.38 482.261 306.38C482.261 306.38 470.411 317.008 467.932 318.604C465.453 320.201 452.371 332.955 447.952 333.131C443.532 333.307 442.088 338.803 442.088 338.803L417.15 339.689C417.15 339.689 403.375 338.968 400.379 340.918C400.379 340.918 401.978 319.833 386.588 306.011L406.216 298.924C406.216 298.924 413.648 295.72 415.945 292.371C417.391 290.318 419.441 288.77 421.809 287.943C421.809 287.943 427.289 284.045 427.465 281.919C427.641 279.794 434.166 277.187 434.166 277.187L430.472 245.597L432.417 193.152C432.417 193.152 438.607 149.208 451.694 151.692C464.781 154.175 474.478 211.753 474.478 211.753Z" fill="black"/>
<path d="M476.61 211.753L482.799 218.312C482.799 218.312 487.752 254.452 490.225 257.833C492.699 261.213 498.541 274.661 493.056 284.76C493.056 284.76 491.291 290.256 492.352 292.558C493.413 294.86 484.393 306.38 484.393 306.38C484.393 306.38 472.543 317.008 470.064 318.604C467.585 320.201 454.503 332.955 450.084 333.131C445.665 333.307 444.22 338.803 444.22 338.803L419.282 339.689C419.282 339.689 405.497 338.968 402.511 340.918C402.511 340.918 404.111 319.833 388.721 306.011L408.349 298.924C408.349 298.924 415.78 295.72 418.078 292.371C419.523 290.318 421.573 288.77 423.941 287.943C423.941 287.943 429.422 284.045 429.598 281.919C429.773 279.794 436.298 277.187 436.298 277.187L432.604 245.597L434.55 193.152C434.55 193.152 440.739 149.208 453.826 151.692C466.913 154.175 476.61 211.753 476.61 211.753Z" fill="#E8F5FF"/>
<path opacity="0.1" d="M453.602 264.733C453.602 264.733 471.818 259.926 476.594 265.801C481.371 271.676 453.602 264.733 453.602 264.733Z" fill="black"/>
<path opacity="0.1" d="M449.359 272.792C455.548 277.134 474.649 277.31 474.649 277.31L449.359 272.792Z" fill="black"/>
<path opacity="0.1" d="M458.731 294.497C459.264 294.673 471.861 308.142 477.149 304.067C482.437 299.992 458.731 294.497 458.731 294.497Z" fill="black"/>
<path opacity="0.1" d="M289.082 181.455C289.082 181.455 292.781 206.973 290.958 217.366C289.135 227.759 295.788 240.636 295.788 240.636L289.082 181.455Z" fill="black"/>
<path d="M207.178 191.832C202.914 195.181 199.8 203.107 197.545 211.817C193.611 227.011 192.327 244.63 192.327 244.63C192.327 244.63 158.369 236.833 160.843 233.292C162.399 231.065 160.309 214.285 158.566 202.118C157.527 194.93 156.599 189.349 156.599 189.349C156.599 189.349 218.853 182.614 207.178 191.832Z" fill="#FFCCD0"/>
<path opacity="0.1" d="M207.178 191.122C202.914 194.476 199.8 202.396 197.545 211.107C190.78 213.165 183.584 213.351 176.722 211.644C169.859 209.938 163.586 206.402 158.566 201.414C157.527 194.22 156.599 188.639 156.599 188.639C156.599 188.639 218.853 181.909 207.178 191.122Z" fill="black"/>
<path d="M225.431 172.034C225.435 181.324 222.158 190.314 216.181 197.416C210.204 204.517 201.912 209.271 192.772 210.837C183.633 212.402 174.235 210.678 166.243 205.969C158.25 201.26 152.178 193.87 149.101 185.107C146.025 176.345 146.141 166.774 149.431 158.089C152.72 149.404 158.97 142.165 167.075 137.653C175.18 133.141 184.617 131.647 193.715 133.435C202.814 135.224 210.988 140.179 216.79 147.424C222.381 154.404 225.429 163.085 225.431 172.034Z" fill="#FFCCD0"/>
<path opacity="0.1" d="M256.393 418.005H245.198L244.254 398.197L243.268 377.694C243.268 377.694 245.811 377.315 249.862 376.749L251.499 376.53H251.632C252.517 380.69 253.391 384.963 254.234 389.23C255.636 396.805 256.365 404.49 256.414 412.195C256.414 412.729 256.414 413.263 256.414 413.765C256.446 415.191 256.414 416.617 256.393 418.005Z" fill="black"/>
<path d="M254.244 418.005H113.851C114.459 416.622 114.864 415.784 114.864 415.784C114.864 415.784 126.096 366.553 131.805 345.724C131.807 345.707 131.807 345.689 131.805 345.671C132.519 342.842 133.38 340.052 134.385 337.313C134.45 337.127 134.534 336.948 134.636 336.779C137.461 332.175 141.001 327.214 136.049 320.126C131.096 313.039 132.85 281.855 132.85 281.855C132.85 281.855 138.863 255.274 145.228 241.1C146.194 238.905 147.565 236.912 149.269 235.225C149.823 234.682 150.415 234.179 151.039 233.719C151.514 233.362 152.009 233.032 152.521 232.731L152.622 232.667C155.296 231.148 158.265 230.225 161.328 229.96C163.503 229.732 165.699 229.793 167.858 230.141C178.178 231.658 186.441 234.195 193.009 237.084C210.809 244.919 216.198 255.419 216.305 255.638L216.347 255.728C217.062 257.4 227.51 281.839 231.274 293.241C232.249 296.211 232.782 298.299 232.569 298.871C231.503 301.701 240.704 337.137 240.704 337.137C240.704 337.137 244.969 354.227 249.233 374.26C249.42 375.093 249.596 375.926 249.766 376.77C250.529 380.407 251.286 384.113 252.016 387.814C253.431 395.442 254.161 403.181 254.196 410.94C254.275 413.357 254.291 415.712 254.244 418.005Z" fill="#FF748E"/>
<path opacity="0.1" d="M160.491 217.772C160.491 217.772 150.804 214.034 150.922 219.705C151.039 225.377 153.283 228.09 152.574 228.918C151.865 229.746 152.926 234.707 152.926 234.707C152.926 234.707 166.013 234.707 172.027 237.421C178.04 240.134 200.206 245.57 203.036 247.226C205.867 248.882 216.363 256.305 216.363 256.305L217.307 242.248C217.307 242.248 206.459 233.271 188.659 228.667C170.859 224.063 160.491 217.772 160.491 217.772Z" fill="black"/>
<path d="M160.491 217.062C160.491 217.062 150.804 213.323 150.922 218.995C151.039 224.667 153.283 227.38 152.574 228.208C151.865 229.036 152.926 233.997 152.926 233.997C152.926 233.997 166.013 233.997 172.027 236.716C178.04 239.434 200.206 244.865 203.036 246.516C205.867 248.166 216.363 255.595 216.363 255.595L217.318 241.581C217.318 241.581 206.469 232.603 188.67 228C170.87 223.396 160.491 217.062 160.491 217.062Z" fill="#FF748E"/>
<path opacity="0.1" d="M189.73 250.89C189.73 250.89 208.239 270.965 207.296 276.525C206.352 282.085 189.73 250.89 189.73 250.89Z" fill="black"/>
<path opacity="0.1" d="M159.664 323.411C159.664 323.411 146.097 335.935 142.099 336.645C138.101 337.356 145.164 339.716 149.76 337.831C154.355 335.946 164.153 330.984 164.153 330.984L159.664 323.411Z" fill="black"/>
<path d="M259.757 418.005H228.118C223.693 414.16 219.509 410.598 216.843 408.456C212.578 405.027 209.503 399.98 207.541 395.922C207.098 394.998 206.715 394.132 206.389 393.347C205.807 391.995 205.295 390.613 204.854 389.208L228.283 375.269C229.578 376.372 230.795 377.564 231.924 378.837L232.207 379.162C233.507 380.701 234.654 382.447 234.755 383.878C234.872 385.545 239.499 391.991 244.228 398.181C249.026 404.477 253.941 410.496 254.266 410.902C254.266 410.902 255.076 412.008 256.398 413.706C257.331 414.934 258.483 416.408 259.757 418.005Z" fill="#FFCCD0"/>
<path opacity="0.1" d="M216.79 147.424C215.665 149.967 214.657 152.605 214.508 155.436C214.087 163.607 214.769 181.877 205.739 185.979C201.266 187.998 196.479 183.565 191.575 183.458C188.046 183.383 184.81 185.626 182.656 188.43C180.503 191.234 179.165 194.561 177.603 197.734C176.181 200.613 174.543 203.381 172.704 206.012C172.154 206.817 171.548 207.583 170.891 208.303C165.385 205.975 160.481 202.419 156.555 197.905C152.628 193.391 149.781 188.039 148.232 182.256C146.683 176.473 146.472 170.412 147.615 164.535C148.758 158.658 151.225 153.119 154.828 148.342C158.431 143.565 163.075 139.675 168.406 136.968C173.737 134.261 179.614 132.809 185.59 132.723C191.566 132.636 197.483 133.918 202.89 136.469C208.296 139.021 213.051 142.775 216.79 147.446V147.424Z" fill="black"/>
<path d="M213.799 153.994C213.373 162.165 214.061 180.435 205.025 184.532C200.552 186.55 195.765 182.123 190.861 182.016C187.332 181.936 184.101 184.184 181.942 186.983C179.783 189.782 178.456 193.114 176.888 196.292C175.466 199.171 173.828 201.938 171.989 204.57C170.891 206.129 169.676 207.694 167.986 208.57C165.043 210.108 161.477 209.243 158.321 208.255C154.227 206.963 150.193 205.506 146.22 203.886C146.311 203.285 146.358 202.678 146.359 202.07C146.241 202.295 146.113 202.503 145.985 202.727L145.735 203.165C145.282 203.966 144.839 204.768 144.434 205.59C144.28 205.905 144.13 206.231 143.997 206.557C143.461 207.769 143.124 209.06 143 210.381C142.728 213.943 144.482 217.323 146.039 220.528C152.025 232.924 155.725 247.418 151.22 260.423C149.269 266.079 145.89 271.104 143.421 276.568C139.107 286.245 137.837 297.008 139.78 307.426C141.012 313.899 143.48 320.308 142.872 326.872C141.806 338.167 132.083 346.574 122.343 352.352C117.082 355.461 110.642 358.227 105.055 355.77C108.616 351.605 109.533 345.842 110.301 340.405C112.401 325.576 114.507 310.739 116.618 295.896C117.46 289.989 118.301 284.082 119.139 278.175C120.707 267.077 122.295 255.857 121.314 244.689C120.6 236.459 118.585 227.722 122.146 220.272C124.028 216.325 127.381 213.056 128.426 208.805C129.284 205.35 128.484 201.675 129.049 198.156C129.359 196.554 129.882 195.002 130.606 193.541C131.528 191.559 132.731 189.72 134.178 188.083C132.749 187.667 131.416 187.095 130.606 185.899C132.898 184.403 133.245 181.033 132.205 178.502C131.166 175.971 129.087 174.043 127.216 172.045C125.344 170.048 123.543 167.719 123.308 164.995C122.855 159.81 128.026 155.793 128.937 150.677C129.86 145.47 126.213 140.407 126.507 135.136C126.848 128.764 132.69 124.134 138.458 121.447C147.162 117.411 156.778 115.752 166.328 116.641C174.1 117.378 181.622 119.786 189.373 120.721C194.048 121.255 198.788 121.308 203.431 122.131C208.074 122.953 212.728 124.689 215.996 128.102C224.61 137.101 214.29 144.508 213.799 153.994Z" fill="#FFE0D0"/>
<path opacity="0.1" d="M206.592 395.927C203.873 394.747 198.926 395.452 190.434 392.861C181.942 390.271 180.306 378.564 180.306 378.564V378.527C180.204 378.26 179.415 376.519 174.074 370.42C168.173 363.685 155.416 329.67 155.416 329.67C155.416 329.67 144.104 317.499 144.461 313.013C144.818 308.526 142.451 296.59 142.686 283.238C142.92 269.887 168.151 261.032 168.151 261.032C216.731 252.406 205.291 308.516 203.996 312.767C202.7 317.018 209.423 328.501 209.423 328.501C208.474 333.5 213.314 341.238 213.314 341.238C213.314 341.238 214.487 348.085 214.727 350.686C214.74 350.806 214.767 350.924 214.807 351.038C215.585 353.49 221.929 355.711 224.509 357.063C227.222 358.483 235.949 370.884 235.949 370.884C237.831 379.99 209.3 397.123 206.592 395.927Z" fill="black"/>
<path d="M208.005 393.791C205.291 392.605 200.339 393.315 191.852 390.72C183.365 388.124 181.723 376.428 181.723 376.428V376.391C181.628 376.118 180.833 374.383 175.492 368.283C169.59 361.549 156.834 327.529 156.834 327.529C156.834 327.529 145.522 315.363 145.873 310.876C146.225 306.39 143.869 294.454 144.104 281.113C144.338 267.772 169.553 258.922 169.553 258.922C218.133 250.297 206.693 306.406 205.398 310.657C204.102 314.909 210.825 326.391 210.825 326.391C209.876 331.39 214.716 339.129 214.716 339.129C214.716 339.129 215.889 345.975 216.134 348.576C216.143 348.697 216.168 348.815 216.209 348.929C216.987 351.38 223.331 353.602 225.916 354.953C228.624 356.368 237.356 368.775 237.356 368.775C239.249 377.865 210.718 394.998 208.005 393.791Z" fill="#FF748E"/>
<path opacity="0.1" d="M170.513 288.216C170.513 288.216 191.735 310.647 197.274 310.647C202.812 310.647 170.513 288.216 170.513 288.216Z" fill="black"/>
<path d="M208.005 393.791C205.291 392.605 200.339 393.315 191.852 390.72C183.365 388.124 181.723 376.428 181.723 376.428V376.391C187.348 372.652 201.592 362.094 207.205 358.232C211.155 355.525 214.38 351.546 216.267 348.908C217.046 351.359 223.389 353.581 225.975 354.932C228.683 356.347 237.415 368.753 237.415 368.753C239.249 377.865 210.718 394.998 208.005 393.791Z" fill="#FF748E"/>
<g opacity="0.1">
<path opacity="0.1" d="M130.638 185.958C130.665 186 130.702 186.038 130.734 186.08C130.894 185.877 131.059 185.675 131.23 185.482C131.048 185.659 130.85 185.818 130.638 185.958Z" fill="black"/>
<path opacity="0.1" d="M143.006 210.439C143.229 207.475 144.813 204.864 146.295 202.257C145.324 201.884 144.354 201.504 143.395 201.109C143.486 200.51 143.532 199.905 143.533 199.299C142.035 201.969 140.404 204.597 140.175 207.603C139.903 211.171 141.657 214.546 143.213 217.751C149.205 230.141 152.9 244.636 148.395 257.646C146.439 263.296 143.064 268.327 140.596 273.791C136.283 283.466 135.015 294.228 136.96 304.644C138.181 311.122 140.655 317.526 140.047 324.089C138.981 335.385 129.263 343.791 119.518 349.564C115.536 351.925 110.882 354.088 106.431 353.933C106.019 354.598 105.559 355.231 105.055 355.829C110.647 358.302 117.082 355.519 122.343 352.4C132.093 346.632 141.833 338.247 142.899 326.931C143.507 320.367 141.033 313.963 139.807 307.485C137.861 297.071 139.125 286.309 143.432 276.632C145.884 271.174 149.296 266.137 151.231 260.487C155.736 247.477 152.036 232.982 146.049 220.592C144.498 217.366 142.734 214.007 143.006 210.439Z" fill="black"/>
<path opacity="0.1" d="M215.985 128.166C215.461 127.627 214.898 127.127 214.3 126.671C220.761 135.066 211.432 142.201 210.969 151.238C210.553 159.409 211.235 177.685 202.199 181.776C197.732 183.8 192.94 179.367 188.041 179.26C184.506 179.186 181.276 181.434 179.117 184.233C176.958 187.031 175.63 190.364 174.068 193.536C172.644 196.415 171.004 199.182 169.164 201.814C168.098 203.379 166.85 204.938 165.155 205.82C162.223 207.352 158.657 206.493 155.496 205.499C152.422 204.531 149.376 203.463 146.359 202.295C146.352 202.851 146.306 203.406 146.22 203.956C150.197 205.579 154.232 207.035 158.326 208.324C161.482 209.318 165.049 210.178 167.986 208.645C169.676 207.764 170.902 206.199 171.995 204.634C173.836 202.006 175.474 199.24 176.894 196.361C178.461 193.189 179.783 189.851 181.947 187.052C184.112 184.254 187.337 182.011 190.866 182.086C195.77 182.192 200.563 186.625 205.03 184.601C214.066 180.51 213.378 162.234 213.799 154.063C214.29 144.562 224.61 137.16 215.985 128.166Z" fill="black"/>
</g>
<path opacity="0.1" d="M145.74 203.171C145.287 203.972 144.845 204.773 144.439 205.595C144.285 205.91 144.136 206.236 144.002 206.562C141.209 203.742 134.407 197.04 130.611 194.962C131.534 192.98 132.737 191.142 134.183 189.504C134.183 189.504 143.229 194.294 145.74 203.171Z" fill="black"/>
<path d="M145.991 202.733C143.896 193.232 134.183 188.089 134.183 188.089C132.736 189.726 131.533 191.564 130.611 193.547C134.615 195.742 141.993 203.101 144.439 205.595L145.991 202.733Z" fill="#FF748E"/>
</g>
</g>
<defs>
<filter id="filter0_i_157_226" x="0" y="0" width="581" height="422" filterUnits="userSpaceOnUse" color-interpolation-filters="sRGB">
<feFlood flood-opacity="0" result="BackgroundImageFix"/>
<feBlend mode="normal" in="SourceGraphic" in2="BackgroundImageFix" result="shape"/>
<feColorMatrix in="SourceAlpha" type="matrix" values="0 0 0 0 0 0 0 0 0 0 0 0 0 0 0 0 0 0 127 0" result="hardAlpha"/>
<feOffset dx="2" dy="4"/>
<feGaussianBlur stdDeviation="5"/>
<feComposite in2="hardAlpha" operator="arithmetic" k2="-1" k3="1"/>
<feColorMatrix type="matrix" values="0 0 0 0 0 0 0 0 0 0 0 0 0 0 0 0 0 0 0.25 0"/>
<feBlend mode="normal" in2="shape" result="effect1_innerShadow_157_226"/>
</filter>
<linearGradient id="paint0_linear_157_226" x1="389.168" y1="50.9555" x2="389.168" y2="41.1393" gradientUnits="userSpaceOnUse">
<stop stop-color="#808080" stop-opacity="0.25"/>
<stop offset="0.54" stop-color="#808080" stop-opacity="0.12"/>
<stop offset="1" stop-color="#808080" stop-opacity="0.1"/>
</linearGradient>
<linearGradient id="paint1_linear_157_226" x1="244565" y1="351687" x2="244565" y2="24520.4" gradientUnits="userSpaceOnUse">
<stop stop-color="#808080" stop-opacity="0.25"/>
<stop offset="0.54" stop-color="#808080" stop-opacity="0.12"/>
<stop offset="1" stop-color="#808080" stop-opacity="0.1"/>
</linearGradient>
<clipPath id="clip0_157_226">
<rect width="579" height="418" fill="white"/>
</clipPath>
</defs>
</svg>
