<svg width="59" height="61" viewBox="0 0 59 61" fill="none" xmlns="http://www.w3.org/2000/svg">
<mask id="path-1-inside-1_170_61" fill="white">
<path d="M39.6918 58.3878C49.4543 65.1249 54.0405 54.5701 54.0405 54.5701C54.0405 54.5701 58.7898 44.24 58.526 37.5029C58.2621 30.7659 54.3536 24.0288 47.2296 17.0672C40.1056 10.1056 38.4366 9.82234 28.1325 0C28.1325 0 10.9821 11.9021 3.59423 27.1728C-3.79364 42.4434 1.74726 52.549 6.4966 57.4895C11.2459 62.43 20.354 61.3844 21.4634 58.3878C22.5729 55.3912 25.2802 27.9806 35.122 32.8205C44.9637 37.6605 29.9293 51.6507 39.6918 58.3878Z"/>
</mask>
<path d="M39.6918 58.3878C49.4543 65.1249 54.0405 54.5701 54.0405 54.5701C54.0405 54.5701 58.7898 44.24 58.526 37.5029C58.2621 30.7659 54.3536 24.0288 47.2296 17.0672C40.1056 10.1056 38.4366 9.82234 28.1325 0C28.1325 0 10.9821 11.9021 3.59423 27.1728C-3.79364 42.4434 1.74726 52.549 6.4966 57.4895C11.2459 62.43 20.354 61.3844 21.4634 58.3878C22.5729 55.3912 25.2802 27.9806 35.122 32.8205C44.9637 37.6605 29.9293 51.6507 39.6918 58.3878Z" fill="white"/>
<path d="M56.3334 55.5664C54.8048 54.9022 53.2762 54.238 51.7476 53.5738C50.9636 54.6794 49.6975 55.9516 48.5626 56.5056C47.39 57.0997 46.4286 57.117 45.4388 56.8215C44.4342 56.5214 43.2969 55.8179 42.1544 54.8193C41.099 53.7597 41.125 53.3125 41.1536 52.1056C41.2233 50.8804 41.7698 48.9836 42.4915 46.8269C43.1734 44.6157 44.1802 42.2457 44.3817 38.5322C44.4536 36.6969 44.1462 34.2391 42.8049 32.0029C41.4764 29.7544 39.4911 28.2948 37.778 27.4195C35.8052 26.321 32.273 25.6212 29.3354 26.7639C26.427 27.848 24.7965 29.6632 23.6214 31.1577C21.34 34.2325 20.3348 37.0031 19.398 39.7218C18.3861 42.792 17.6796 45.7723 17.0676 48.7086C16.7628 50.1774 16.4874 51.636 16.2265 53.0542C16.0971 53.7561 15.9663 54.4755 15.8445 55.1149C15.7787 55.4594 15.7202 55.7573 15.6614 56.0328C15.6364 56.151 15.6044 56.2918 15.5877 56.3599C15.5754 56.4206 15.5487 56.4793 15.6378 56.2309C16.2916 54.6841 16.9218 54.5433 16.9803 54.4672C17.0812 54.4199 16.9013 54.5162 16.6477 54.577C16.122 54.7154 15.3013 54.782 14.5298 54.7143C12.9411 54.5897 11.585 53.9697 10.896 53.2603C4.97682 47.4131 4.53413 38.3243 8.70897 29.6473C13.263 19.9513 21.9745 11.0061 30.9115 4.00444L24.7693 3.52812C31.1089 9.5027 38.441 14.5199 44.3585 20.0053C49.859 25.0275 54.7178 31.0087 55.2883 37.6297C55.4293 39.1972 55.2274 41.0905 54.8837 42.9599C54.2263 46.4713 53.0816 50.1371 51.7691 53.5258C53.2833 54.222 54.7976 54.9182 56.3119 55.6144C58.1121 51.9513 59.6057 48.3117 60.7144 44.3028C61.2838 42.1556 61.764 39.9308 61.7637 37.3761C61.6071 27.7368 55.783 20.1302 50.1007 14.1291C43.855 7.57039 37.3113 2.57732 31.4957 -3.52812L28.4517 -6.279L25.3535 -4.00444C14.6397 3.58823 5.01655 12.2841 -1.52052 24.6983C-7.38946 35.0491 -7.96523 51.8223 2.0972 61.7187C5.28697 65.0523 9.43763 66.5948 13.369 66.9921C15.3675 67.1816 17.3623 67.1224 19.5482 66.6154C20.6462 66.3488 21.7982 65.9835 23.1066 65.2535C24.3645 64.4923 26.1396 63.4078 27.2891 60.5447C27.4749 60.0418 27.5769 59.6373 27.6353 59.4151C27.7023 59.1541 27.7634 58.8882 27.8063 58.696C27.9044 58.2533 27.9772 57.8944 28.0564 57.4969C28.2012 56.7679 28.3379 56.0431 28.4703 55.3509C28.736 53.9585 29.0001 52.6038 29.2833 51.2685C29.8476 48.6097 30.4824 46.0166 31.2638 43.6528C31.9347 41.5978 32.8073 39.5931 33.5256 38.5927C33.8572 38.0859 34.1061 38.0456 33.5768 38.2453C33.3287 38.3289 32.926 38.3617 32.6822 38.3122C32.4409 38.2688 32.3726 38.1964 32.4659 38.2215C32.8899 38.3927 32.8484 38.4137 32.7699 38.2013C32.69 37.9873 32.8275 37.9477 32.8803 38.4734C33.0073 39.5231 32.5725 41.731 32.0811 44.0989C31.6221 46.514 30.9739 49.2934 31.3611 52.8196C31.6133 56.3765 34.2842 60.392 37.2292 61.9563C39.304 63.1708 41.7368 64.2223 44.6149 64.3557C50.82 64.6569 54.8655 59.8348 56.3334 55.5664ZM51.7476 53.5738L56.3334 55.5664L56.3119 55.6144L51.7691 53.5258L51.7476 53.5738Z" fill="#0089FF" mask="url(#path-1-inside-1_170_61)"/>
</svg>
