<svg width="19" height="19" viewBox="0 0 19 19" fill="none" xmlns="http://www.w3.org/2000/svg">
<path d="M17.4979 18.9737L10.8572 12.3329C10.3301 12.7545 9.72401 13.0883 9.03885 13.3343C8.35369 13.5802 7.6246 13.7032 6.8516 13.7032C4.93667 13.7032 3.31618 13.0398 1.99013 11.7131C0.664079 10.3863 0.000703286 8.76583 5.57721e-07 6.8516C-0.000702171 4.93737 0.662673 3.31688 1.99013 1.99013C3.31758 0.663376 4.93807 0 6.8516 0C8.76513 0 10.386 0.663376 11.7141 1.99013C13.0423 3.31688 13.7053 4.93737 13.7032 6.8516C13.7032 7.6246 13.5802 8.35368 13.3343 9.03884C13.0883 9.724 12.7545 10.3301 12.3329 10.8572L18.9737 17.4979L17.4979 18.9737ZM6.8516 11.595C8.16922 11.595 9.28937 11.134 10.2121 10.212C11.1347 9.29007 11.5957 8.16992 11.595 6.8516C11.5943 5.53328 11.1333 4.41349 10.2121 3.49221C9.29077 2.57093 8.17062 2.10959 6.8516 2.10819C5.53258 2.10678 4.41278 2.56812 3.49221 3.49221C2.57164 4.4163 2.11029 5.53609 2.10819 6.8516C2.10608 8.16711 2.56742 9.28726 3.49221 10.212C4.417 11.1368 5.5368 11.5978 6.8516 11.595Z" fill="#767676" fill-opacity="0.63"/>
</svg>
