<svg width="38" height="38" viewBox="0 0 38 38" fill="none" xmlns="http://www.w3.org/2000/svg">
<g clip-path="url(#clip0_215_226)">
<g filter="url(#filter0_d_215_226)">
<path d="M33.1597 26.4887C32.2919 21.3089 29.8118 16.5349 26.0727 12.8467C25.2541 12.0503 24.8456 11.6529 23.9416 11.2855C23.0375 10.9166 22.2601 10.9166 20.7068 10.9166H17.2931C15.7399 10.9166 14.9625 10.9166 14.0584 11.2855C13.1559 11.6529 12.7442 12.0503 11.9272 12.8467C8.18811 16.5349 5.70804 21.3089 4.84022 26.4887C4.06914 31.1405 8.35997 34.6666 13.1543 34.6666H24.8456C29.6416 34.6666 33.934 31.1405 33.1581 26.4887" fill="url(#paint0_linear_215_226)"/>
<path d="M33.1597 26.4887C32.2919 21.3089 29.8118 16.5349 26.0727 12.8467C25.2541 12.0503 24.8456 11.6529 23.9416 11.2855C23.0375 10.9166 22.2601 10.9166 20.7068 10.9166H17.2931C15.7399 10.9166 14.9625 10.9166 14.0584 11.2855C13.1559 11.6529 12.7442 12.0503 11.9272 12.8467C8.18811 16.5349 5.70804 21.3089 4.84022 26.4887C4.06914 31.1405 8.35997 34.6666 13.1543 34.6666H24.8456C29.6416 34.6666 33.934 31.1405 33.1581 26.4887" stroke="url(#paint1_linear_215_226)" stroke-width="2.5" stroke-linecap="round" stroke-linejoin="round"/>
</g>
<path d="M11.4902 6.86808C11.1625 6.39308 10.689 5.74708 11.6675 5.60142C12.673 5.44942 13.7164 6.13658 14.7392 6.12392C15.6623 6.10967 16.1325 5.69958 16.6392 5.11375C17.1712 4.49783 17.9945 3 19 3C20.0054 3 20.8287 4.49783 21.3607 5.11375C21.8674 5.69958 22.3376 6.11125 23.2607 6.12233C24.2835 6.13817 25.327 5.44942 26.3324 5.59983C27.3109 5.74708 26.8375 6.3915 26.5097 6.8665L25.034 9.01825C24.4007 9.93658 24.0856 10.3957 23.4238 10.657C22.762 10.9182 21.9085 10.9167 20.2001 10.9167H17.7998C16.0898 10.9167 15.2364 10.9167 14.5761 10.657C13.9159 10.3973 13.5992 9.935 12.9659 9.01667L11.4902 6.86808Z" fill="url(#paint2_linear_215_226)" stroke="url(#paint3_linear_215_226)" stroke-width="2.5" stroke-linejoin="round"/>
<path d="M21.576 20.2884C21.234 19.0233 19.4907 17.8833 17.3991 18.7367C15.3076 19.5901 14.9766 22.3341 18.1386 22.627C19.5699 22.7584 20.5009 22.4734 21.3543 23.2793C22.2093 24.0836 22.3676 26.3241 20.1842 26.9273C18.004 27.5306 15.8427 26.5885 15.6084 25.249M18.7497 17.2373V18.4422M18.7497 27.1126V28.3222" stroke="url(#paint4_linear_215_226)" stroke-width="2.5" stroke-linecap="round" stroke-linejoin="round"/>
<path d="M21.576 20.2884C21.234 19.0233 19.4907 17.8833 17.3991 18.7367C15.3076 19.5901 14.9766 22.3341 18.1386 22.627C19.5699 22.7584 20.5009 22.4734 21.3543 23.2793C22.2093 24.0836 22.3676 26.3241 20.1842 26.9273C18.004 27.5306 15.8427 26.5885 15.6084 25.249M18.7497 17.2373V18.4422M18.7497 27.1126V28.3222" stroke="black" stroke-opacity="0.2" stroke-width="2.5" stroke-linecap="round" stroke-linejoin="round"/>
</g>
<defs>
<filter id="filter0_d_215_226" x="2.49951" y="8.6665" width="35" height="30.2501" filterUnits="userSpaceOnUse" color-interpolation-filters="sRGB">
<feFlood flood-opacity="0" result="BackgroundImageFix"/>
<feColorMatrix in="SourceAlpha" type="matrix" values="0 0 0 0 0 0 0 0 0 0 0 0 0 0 0 0 0 0 127 0" result="hardAlpha"/>
<feOffset dx="1" dy="1"/>
<feGaussianBlur stdDeviation="1"/>
<feComposite in2="hardAlpha" operator="out"/>
<feColorMatrix type="matrix" values="0 0 0 0 0 0 0 0 0 0 0 0 0 0 0 0 0 0 0.25 0"/>
<feBlend mode="normal" in2="BackgroundImageFix" result="effect1_dropShadow_215_226"/>
<feBlend mode="normal" in="SourceGraphic" in2="effect1_dropShadow_215_226" result="shape"/>
</filter>
<linearGradient id="paint0_linear_215_226" x1="18.9997" y1="10.9166" x2="18.9997" y2="34.6666" gradientUnits="userSpaceOnUse">
<stop offset="0.0192308" stop-color="#FFD000"/>
<stop offset="0.427885" stop-color="#E6A015"/>
</linearGradient>
<linearGradient id="paint1_linear_215_226" x1="18.9997" y1="10.9166" x2="18.9997" y2="34.6666" gradientUnits="userSpaceOnUse">
<stop offset="0.0192308" stop-color="#FFD000"/>
<stop offset="0.427885" stop-color="#E6A015"/>
</linearGradient>
<linearGradient id="paint2_linear_215_226" x1="19" y1="3" x2="19" y2="10.9167" gradientUnits="userSpaceOnUse">
<stop offset="0.0192308" stop-color="#FFD000"/>
<stop offset="0.427885" stop-color="#E6A015"/>
</linearGradient>
<linearGradient id="paint3_linear_215_226" x1="19" y1="3" x2="19" y2="10.9167" gradientUnits="userSpaceOnUse">
<stop offset="0.0192308" stop-color="#FFD000"/>
<stop offset="0.427885" stop-color="#E6A015"/>
</linearGradient>
<linearGradient id="paint4_linear_215_226" x1="18.7748" y1="17.2373" x2="18.7748" y2="28.3222" gradientUnits="userSpaceOnUse">
<stop offset="0.725962" stop-color="#1FE401"/>
<stop offset="1" stop-color="#1EE200"/>
</linearGradient>
<clipPath id="clip0_215_226">
<rect width="38" height="38" fill="white"/>
</clipPath>
</defs>
</svg>
