<svg width="38" height="38" viewBox="0 0 38 38" fill="none" xmlns="http://www.w3.org/2000/svg">
<path d="M29.6875 7.6V4.63125L19 4.15625L8.3125 4.63125V7.6C8.3125 12.35 11.6375 16.2688 16.0312 17.3375C16.3875 17.4563 16.625 17.8125 16.625 18.1688V19.5938C16.625 19.95 16.3875 20.3063 16.0312 20.3063C11.6375 21.375 8.3125 25.2937 8.3125 30.0437V33.25L19 34.4375L29.6875 33.25V30.0437C29.6875 25.2937 26.3625 21.375 21.9688 20.3063C21.6125 20.1875 21.375 19.95 21.375 19.5938V18.1688C21.375 17.8125 21.6125 17.4562 21.9688 17.4562C26.3625 16.2687 29.6875 12.35 29.6875 7.6Z" fill="#83CBFF"/>
<path d="M8.3125 4.75H29.6875C30.4 4.75 30.875 4.275 30.875 3.5625C30.875 2.85 30.4 2.375 29.6875 2.375H8.3125C7.6 2.375 7.125 2.85 7.125 3.5625C7.125 4.275 7.6 4.75 8.3125 4.75ZM8.3125 35.625H29.6875C30.4 35.625 30.875 35.15 30.875 34.4375C30.875 33.725 30.4 33.25 29.6875 33.25H8.3125C7.6 33.25 7.125 33.725 7.125 34.4375C7.125 35.15 7.6 35.625 8.3125 35.625Z" fill="#9B9B9B"/>
<path d="M20.1875 23.0375V17.9313C20.1875 17.1 20.7813 16.5062 21.4938 16.2687C23.5125 15.7937 25.2937 14.6062 26.6 13.0625C27.4312 12.1125 26.7188 10.6875 25.5312 10.6875H12.4688C11.2812 10.6875 10.5688 12.1125 11.4 13.0625C12.7063 14.6062 14.4875 15.675 16.5062 16.2687C17.3375 16.5062 17.8125 17.1 17.8125 17.9313V22.5625C17.8125 23.3937 17.4562 23.75 17.1 23.8688C12.7062 24.7 9.5 28.025 9.5 31.9437V33.25H28.5V31.9437C28.5 28.025 25.2938 24.7 20.9 23.8688C20.5438 23.8688 20.1875 23.5125 20.1875 23.0375Z" fill="#FFB02E"/>
<path d="M25.5311 6.88748C25.5311 6.29373 26.006 5.81873 26.5998 5.81873C27.3123 5.93748 27.7873 6.41248 27.6685 6.88748C27.5498 8.78748 27.0748 10.45 26.1248 11.875C25.1748 13.5375 23.7498 14.725 22.0873 15.3187C21.4936 15.5562 20.8998 15.3187 20.6623 14.725C20.4248 14.1312 20.6623 13.5375 21.256 13.3C24.106 12.2312 25.2936 9.14373 25.5311 6.88748ZM25.5311 30.7562C25.5311 31.35 26.006 31.825 26.5998 31.825C27.3123 31.825 27.7873 31.2312 27.6685 30.7562C27.5498 28.8562 27.0748 27.1937 26.1248 25.7687C25.1748 24.1062 23.7498 22.9187 22.0873 22.325C21.4936 22.0875 20.8998 22.325 20.6623 22.9187C20.4248 23.5125 20.6623 24.1062 21.256 24.3437C24.106 25.4125 25.2936 28.5 25.5311 30.7562Z" fill="white"/>
</svg>
