<svg width="18" height="20" viewBox="0 0 18 20" fill="none" xmlns="http://www.w3.org/2000/svg">
<path d="M2.25 17.4375H5.625V11.8125C5.625 11.4938 5.733 11.2268 5.949 11.0115C6.165 10.7963 6.432 10.6883 6.75 10.6875H11.25C11.5688 10.6875 11.8361 10.7955 12.0521 11.0115C12.2681 11.2275 12.3758 11.4945 12.375 11.8125V17.4375H15.75V7.3125L9 2.25L2.25 7.3125V17.4375ZM0 17.4375V7.3125C0 6.95625 0.0798748 6.61875 0.239625 6.3C0.399375 5.98125 0.6195 5.71875 0.9 5.5125L7.65 0.45C8.04375 0.15 8.49375 0 9 0C9.50625 0 9.95625 0.15 10.35 0.45L17.1 5.5125C17.3813 5.71875 17.6018 5.98125 17.7615 6.3C17.9213 6.61875 18.0008 6.95625 18 7.3125V17.4375C18 18.0563 17.7795 18.5861 17.3385 19.0271C16.8975 19.4681 16.368 19.6883 15.75 19.6875H11.25C10.9313 19.6875 10.6643 19.5795 10.449 19.3635C10.2338 19.1475 10.1258 18.8805 10.125 18.5625V12.9375H7.875V18.5625C7.875 18.8813 7.767 19.1486 7.551 19.3646C7.335 19.5806 7.068 19.6883 6.75 19.6875H2.25C1.63125 19.6875 1.10175 19.4674 0.6615 19.0271C0.22125 18.5869 0.00075 18.057 0 17.4375Z" fill="#0089FF"/>
</svg>
