<svg width="59" height="45" viewBox="0 0 59 45" fill="none" xmlns="http://www.w3.org/2000/svg">
<path fill-rule="evenodd" clip-rule="evenodd" d="M13.0501 13.0499C13.0501 10.9733 13.875 8.98172 15.3434 7.51332C16.8118 6.04491 18.8034 5.21997 20.88 5.21997C22.9567 5.21997 24.9483 6.04491 26.4167 7.51332C27.8851 8.98172 28.71 10.9733 28.71 13.0499C28.71 15.1266 27.8851 17.1182 26.4167 18.5866C24.9483 20.055 22.9567 20.8799 20.88 20.8799C18.8034 20.8799 16.8118 20.055 15.3434 18.5866C13.875 17.1182 13.0501 15.1266 13.0501 13.0499ZM7.83008 36.5399V35.2349C7.83008 32.1199 9.06749 29.1325 11.2701 26.9299C13.4727 24.7273 16.4601 23.4899 19.575 23.4899H22.185C25.3 23.4899 28.2874 24.7273 30.49 26.9299C32.6926 29.1325 33.93 32.1199 33.93 35.2349V36.5399H7.83008Z" fill="#0089FF"/>
<path d="M37.3835 6.21014C39.858 6.21014 42.2315 7.19287 43.9812 8.94257C45.7309 10.6923 46.7136 13.0658 46.7136 15.5402C46.7136 18.0146 45.7309 20.3882 43.9812 22.1379C42.8284 23.2906 41.4038 24.1071 39.8591 24.5324C42.9429 24.8059 45.8479 26.153 48.0544 28.3596C50.5382 30.8434 51.9333 34.2122 51.9333 37.7248V40.5305H22.8337V37.7248C22.8338 34.2122 24.229 30.8434 26.7126 28.3596C28.9191 26.1531 31.8243 24.8059 34.908 24.5324C33.3635 24.1072 31.9395 23.2904 30.7869 22.1379C29.0372 20.3882 28.0535 18.0146 28.0535 15.5402C28.0535 13.0658 29.0372 10.6923 30.7869 8.94257C32.5365 7.19312 34.9093 6.21018 37.3835 6.21014Z" fill="#0089FF"/>
<path d="M37.3835 6.21014C39.858 6.21014 42.2315 7.19287 43.9812 8.94257C45.7309 10.6923 46.7136 13.0658 46.7136 15.5402C46.7136 18.0146 45.7309 20.3882 43.9812 22.1379C42.8284 23.2906 41.4038 24.1071 39.8591 24.5324C42.9429 24.8059 45.8479 26.153 48.0544 28.3596C50.5382 30.8434 51.9333 34.2122 51.9333 37.7248V40.5305H22.8337V37.7248C22.8338 34.2122 24.229 30.8434 26.7126 28.3596C28.9191 26.1531 31.8243 24.8059 34.908 24.5324C33.3635 24.1072 31.9395 23.2904 30.7869 22.1379C29.0372 20.3882 28.0535 18.0146 28.0535 15.5402C28.0535 13.0658 29.0372 10.6923 30.7869 8.94257C32.5365 7.19312 34.9093 6.21018 37.3835 6.21014Z" stroke="white" stroke-width="3"/>
<path d="M37.3835 6.21014C39.858 6.21014 42.2315 7.19287 43.9812 8.94257C45.7309 10.6923 46.7136 13.0658 46.7136 15.5402C46.7136 18.0146 45.7309 20.3882 43.9812 22.1379C42.8284 23.2906 41.4038 24.1071 39.8591 24.5324C42.9429 24.8059 45.8479 26.153 48.0544 28.3596C50.5382 30.8434 51.9333 34.2122 51.9333 37.7248V40.5305H22.8337V37.7248C22.8338 34.2122 24.229 30.8434 26.7126 28.3596C28.9191 26.1531 31.8243 24.8059 34.908 24.5324C33.3635 24.1072 31.9395 23.2904 30.7869 22.1379C29.0372 20.3882 28.0535 18.0146 28.0535 15.5402C28.0535 13.0658 29.0372 10.6923 30.7869 8.94257C32.5365 7.19312 34.9093 6.21018 37.3835 6.21014Z" stroke="white" stroke-width="3"/>
</svg>
