<svg width="27" height="27" viewBox="0 0 27 27" fill="none" xmlns="http://www.w3.org/2000/svg">
<g clip-path="url(#clip0_102_1938)">
<path d="M7.65855 0C7.90918 0 8.14954 0.0995622 8.32677 0.276784C8.50399 0.454006 8.60355 0.69437 8.60355 0.945V2.71215H18.7515V0.95715C18.7515 0.70652 18.8511 0.466156 19.0283 0.288934C19.2055 0.111712 19.4459 0.01215 19.6965 0.01215C19.9471 0.01215 20.1875 0.111712 20.3647 0.288934C20.5419 0.466156 20.6415 0.70652 20.6415 0.95715V2.71215H24.3C25.0159 2.71215 25.7024 2.99643 26.2087 3.50248C26.715 4.00854 26.9996 4.69495 27 5.4108V24.3013C26.9996 25.0172 26.715 25.7036 26.2087 26.2097C25.7024 26.7157 25.0159 27 24.3 27H2.7C1.98415 27 1.2976 26.7157 0.791289 26.2097C0.284979 25.7036 0.000357925 25.0172 0 24.3013L0 5.4108C0.000357925 4.69495 0.284979 4.00854 0.791289 3.50248C1.2976 2.99643 1.98415 2.71215 2.7 2.71215H6.71355V0.94365C6.71391 0.693254 6.81363 0.453237 6.99081 0.276307C7.16799 0.0993766 7.40815 -2.55506e-07 7.65855 0ZM1.89 10.4517V24.3013C1.89 24.4077 1.91095 24.5131 1.95166 24.6113C1.99236 24.7096 2.05203 24.7989 2.12724 24.8741C2.20246 24.9493 2.29175 25.009 2.39003 25.0497C2.4883 25.0904 2.59363 25.1114 2.7 25.1114H24.3C24.4064 25.1114 24.5117 25.0904 24.61 25.0497C24.7082 25.009 24.7975 24.9493 24.8728 24.8741C24.948 24.7989 25.0076 24.7096 25.0483 24.6113C25.089 24.5131 25.11 24.4077 25.11 24.3013V10.4706L1.89 10.4517ZM9.00045 19.7357V21.9848H6.75V19.7357H9.00045ZM14.6246 19.7357V21.9848H12.3755V19.7357H14.6246ZM20.25 19.7357V21.9848H17.9995V19.7357H20.25ZM9.00045 14.3667V16.6158H6.75V14.3667H9.00045ZM14.6246 14.3667V16.6158H12.3755V14.3667H14.6246ZM20.25 14.3667V16.6158H17.9995V14.3667H20.25ZM6.71355 4.6008H2.7C2.59363 4.6008 2.4883 4.62175 2.39003 4.66246C2.29175 4.70316 2.20246 4.76283 2.12724 4.83804C2.05203 4.91326 1.99236 5.00255 1.95166 5.10083C1.91095 5.1991 1.89 5.30443 1.89 5.4108V8.56305L25.11 8.58195V5.4108C25.11 5.30443 25.089 5.1991 25.0483 5.10083C25.0076 5.00255 24.948 4.91326 24.8728 4.83804C24.7975 4.76283 24.7082 4.70316 24.61 4.66246C24.5117 4.62175 24.4064 4.6008 24.3 4.6008H20.6415V5.85495C20.6415 6.10558 20.5419 6.34594 20.3647 6.52317C20.1875 6.70039 19.9471 6.79995 19.6965 6.79995C19.4459 6.79995 19.2055 6.70039 19.0283 6.52317C18.8511 6.34594 18.7515 6.10558 18.7515 5.85495V4.6008H8.60355V5.8428C8.60355 6.09343 8.50399 6.33379 8.32677 6.51102C8.14954 6.68824 7.90918 6.7878 7.65855 6.7878C7.40792 6.7878 7.16756 6.68824 6.99033 6.51102C6.81311 6.33379 6.71355 6.09343 6.71355 5.8428V4.6008Z" fill="#0089FF"/>
</g>
<defs>
<clipPath id="clip0_102_1938">
<rect width="27" height="27" fill="white"/>
</clipPath>
</defs>
</svg>
