<svg width="23" height="23" viewBox="0 0 23 23" fill="none" xmlns="http://www.w3.org/2000/svg">
<path d="M15.3518 12.0549C16.4547 11.1872 17.2598 9.99721 17.6549 8.65061C18.0501 7.30401 18.0157 5.86773 17.5565 4.54158C17.0974 3.21543 16.2363 2.06537 15.0931 1.25139C13.9499 0.437416 12.5814 0 11.178 0C9.77465 0 8.40616 0.437416 7.26296 1.25139C6.11975 2.06537 5.25867 3.21543 4.79952 4.54158C4.34038 5.86773 4.30599 7.30401 4.70114 8.65061C5.0963 9.99721 5.90134 11.1872 7.00428 12.0549C5.11437 12.8121 3.46536 14.0679 2.23304 15.6886C1.00072 17.3092 0.231294 19.2339 0.00678582 21.2574C-0.00946526 21.4052 0.00354192 21.5546 0.0450644 21.6974C0.0865869 21.8401 0.155812 21.9732 0.248786 22.0892C0.436557 22.3233 0.709667 22.4733 1.00804 22.5062C1.3064 22.539 1.60559 22.4519 1.83978 22.2642C2.07396 22.0764 2.22397 21.8033 2.25679 21.5049C2.50382 19.3058 3.55243 17.2747 5.20228 15.7998C6.85213 14.3249 8.98755 13.5096 11.2005 13.5096C13.4135 13.5096 15.5489 14.3249 17.1988 15.7998C18.8486 17.2747 19.8972 19.3058 20.1443 21.5049C20.1749 21.7814 20.3068 22.0367 20.5145 22.2216C20.7223 22.4065 20.9912 22.5079 21.2693 22.5062H21.393C21.6879 22.4722 21.9575 22.3231 22.1429 22.0913C22.3284 21.8595 22.4147 21.5638 22.383 21.2687C22.1575 19.2394 21.3839 17.3098 20.1452 15.6867C18.9066 14.0635 17.2496 12.8081 15.3518 12.0549ZM11.178 11.2562C10.288 11.2562 9.41799 10.9923 8.67797 10.4978C7.93795 10.0033 7.36117 9.30052 7.02058 8.47825C6.67998 7.65599 6.59087 6.75119 6.7645 5.87827C6.93813 5.00536 7.36672 4.20354 7.99605 3.5742C8.62539 2.94486 9.42721 2.51628 10.3001 2.34265C11.173 2.16901 12.0778 2.25813 12.9001 2.59872C13.7224 2.93932 14.4252 3.51609 14.9196 4.25611C15.4141 4.99614 15.678 5.86616 15.678 6.75618C15.678 7.94965 15.2039 9.09424 14.36 9.93816C13.5161 10.7821 12.3715 11.2562 11.178 11.2562Z" fill="#0089FF"/>
</svg>
